<svg width="509" height="171" viewBox="0 0 509 171" fill="none" xmlns="http://www.w3.org/2000/svg">
<path d="M425.473 78.261C426.024 77.7755 426.629 77.356 427.166 76.8568C427.559 76.4928 427.823 76.0414 428.173 75.6409C428.599 75.1522 428.972 74.635 429.385 74.139C430.027 73.3685 430.467 72.4507 431.042 71.6382C431.801 70.5676 432.369 69.3706 432.993 68.2147C433.287 67.6698 433.555 67.1065 433.771 66.5246C434.028 65.8306 434.382 65.2065 434.683 64.5269C435.297 63.1378 435.556 61.6615 436.12 60.2601C436.549 59.1924 436.802 58.0662 437.184 56.9813C437.557 55.9209 438.029 54.8713 438.291 53.7749C438.476 53.0043 438.594 52.3043 438.639 51.5166C438.679 50.8053 438.827 50.1289 438.827 49.4104C438.827 49.0093 438.905 48.535 438.704 48.1727C438.396 47.6182 438.082 47.1448 437.64 46.6889C437.035 46.066 436.531 45.5905 435.667 45.3426C434.654 45.0516 433.568 45.0578 432.523 45.1182C431.853 45.157 431.521 45.6489 431.176 46.1822C430.488 47.2455 429.9 48.4025 429.41 49.566C428.898 50.7825 428.444 51.9932 428.245 53.2972C428.128 54.0632 428.021 54.836 427.934 55.6061C427.833 56.4949 427.605 57.3632 427.463 58.2443C427.285 59.3491 427.135 60.4558 426.906 61.5521C426.569 63.1655 425.968 64.7349 425.932 66.3943C425.893 68.212 426.135 70.1327 425.69 71.9133C425.364 73.2176 425.017 74.57 425.017 75.9268C425.017 76.5206 424.995 77.1138 425.067 77.7037C425.106 78.0176 425.217 78.2868 425.277 78.5867" stroke="#7B6823" stroke-width="3" stroke-linecap="round"/>
<path d="M450.828 82.4212C451.399 82.4212 452.043 82.5084 452.604 82.3881C453.164 82.2683 453.749 81.9847 454.291 81.7989C455.408 81.4163 456.453 80.9031 457.531 80.4312C458.086 80.1885 458.601 79.9667 459.109 79.6346C459.724 79.2334 460.116 78.8564 460.498 78.2097C461.186 77.0459 461.458 75.2187 460.501 74.1304C460.094 73.6669 459.457 73.3584 458.866 73.2046C458.034 72.988 457.143 72.8499 456.296 72.7146C454.206 72.3808 452.024 72.5017 449.914 72.5192C448.959 72.5271 448.088 72.7989 447.151 72.94C446.58 73.0261 446.001 73.0465 445.429 73.1234C444.7 73.2212 443.979 73.3626 443.25 73.4571C442.674 73.5316 442.1 73.5674 441.545 73.7457C441.027 73.9121 440.511 74.0964 440 74.2837C439.077 74.6222 438.163 74.9886 437.253 75.3599C436.663 75.6004 436.094 75.8865 435.509 76.1385C434.436 76.601 433.254 76.8558 432.22 77.395C431.38 77.8336 430.6 78.3737 429.768 78.8229C429.401 79.0206 428.972 79.249 428.562 79.34C428.399 79.3762 428.26 79.7271 428.289 79.872C428.392 80.4027 429.092 80.4118 429.521 80.4733C430.183 80.5681 430.849 80.5845 431.493 80.7739C432.23 80.9905 432.942 81.1902 433.699 81.336C434.531 81.4962 435.338 81.682 436.158 81.8921C437.346 82.1962 438.533 82.6426 439.754 82.7879C441.128 82.9517 442.496 82.8962 443.869 83.0224C444.423 83.0733 444.934 83.1787 445.495 83.1787C446.316 83.1787 447.14 83.202 447.96 83.1667C449.141 83.1159 450.249 82.6649 451.417 82.4994C451.769 82.4495 452.15 82.313 452.505 82.313" stroke="#7B6823" stroke-width="3" stroke-linecap="round"/>
<path d="M371.125 98.3683C371.672 98.1428 372.193 97.646 372.681 97.3136C373.153 96.9926 373.637 96.688 374.107 96.3659C374.685 95.9706 375.171 95.4487 375.703 94.9963C376.172 94.5972 376.625 94.2502 377.028 93.7782C377.284 93.4778 377.495 93.1333 377.768 92.8483C378.108 92.4918 378.474 92.1605 378.801 91.7907C379.741 90.7292 380.782 89.751 381.772 88.7336C382.972 87.5006 384.019 86.1564 385.325 85.0259C386.62 83.9059 388.114 82.9604 389.051 81.4935C389.972 80.0521 390.41 78.4087 390.875 76.7906C391.045 76.201 390.982 75.5007 390.94 74.8981C390.879 74.0039 390.644 73.2009 390.216 72.4144C389.966 71.9555 389.578 71.4389 389.042 71.3152C388.506 71.1914 387.97 71.2023 387.423 71.2023C386.644 71.2023 385.903 71.2315 385.138 71.3954C384.192 71.5981 383.435 72.1094 382.744 72.7769C382.286 73.2192 381.968 73.6987 381.594 74.2029C381.261 74.653 380.92 75.0825 380.626 75.5636C379.811 76.8938 378.993 78.2868 378.326 79.6991C377.017 82.4722 375.776 85.2756 374.164 87.8958C373.479 89.0089 373.22 90.3817 372.878 91.6303C372.663 92.4123 372.459 93.2084 372.135 93.9535C371.854 94.5996 371.48 95.2488 371.261 95.9173C371.116 96.3597 370.936 96.7888 370.816 97.2393C370.749 97.4886 370.753 97.7427 370.697 97.994" stroke="#7B6823" stroke-width="3" stroke-linecap="round"/>
<path d="M371.927 98.7961C373.567 98.7961 375.19 98.8416 376.808 99.114C377.771 99.2763 378.761 99.483 379.734 99.5656C380.744 99.6513 381.73 99.7527 382.729 99.9191" stroke="#7B6823" stroke-width="3" stroke-linecap="round"/>
<path d="M383.264 99.9191C384.848 100.002 386.436 100.151 387.872 100.888C388.537 101.229 389.106 101.671 389.817 101.921C390.416 102.132 391.016 102.368 391.627 102.542C393.141 102.975 394.596 103.635 396.033 104.269C396.507 104.478 396.927 104.631 397.366 104.922C397.808 105.215 398.252 105.484 398.677 105.802C399.285 106.257 399.829 106.694 399.981 107.453C400.232 108.709 400.697 109.916 400.697 111.214C400.697 111.959 400.424 112.418 399.764 112.822C399.296 113.108 398.749 113.237 398.225 113.377C397.508 113.57 396.798 113.736 396.059 113.82C395.428 113.892 394.784 113.893 394.149 113.87C393.446 113.846 392.859 113.608 392.194 113.419C391.479 113.216 390.736 113.209 390.019 112.991C389.26 112.76 388.432 112.64 387.72 112.278C387.039 111.932 386.404 111.563 385.688 111.286C384.789 110.937 383.818 110.737 382.952 110.311C382.269 109.976 381.608 109.622 380.917 109.301C380.214 108.976 379.45 108.75 378.781 108.359C377.682 107.719 376.658 106.87 375.611 106.146C374.664 105.491 373.75 104.818 372.83 104.126C372.265 103.701 371.832 103.161 371.345 102.655C370.917 102.212 370.727 101.729 370.447 101.191C370.116 100.553 369.734 99.9611 369.734 99.2239" stroke="#7B6823" stroke-width="3" stroke-linecap="round"/>
<path d="M317.552 113.095C320.001 111.187 322.486 109.345 324.862 107.347C326.763 105.747 328.86 104.277 330.503 102.398C331.752 100.968 332.806 99.2935 333.925 97.7604C335.807 95.1829 337.661 92.6079 338.585 89.5163C338.856 88.6099 339.528 87.0136 338.731 86.1748C338.296 85.7161 337.636 85.2964 337.055 85.0558C336.049 84.6397 334.628 84.4128 333.548 84.5713C332.912 84.6647 332.347 85.0528 331.841 85.4211C331.167 85.9112 330.482 86.4125 329.853 86.9592C328.813 87.8631 327.942 88.9122 327.173 90.0469" stroke="#7B6823" stroke-width="3" stroke-linecap="round"/>
<path d="M326.965 90.1854C326.243 91.2131 325.614 92.2846 324.958 93.3538C324.412 94.2446 323.813 95.0689 323.316 95.9916C321.943 98.5411 320.331 101.005 319.252 103.697C318.569 105.401 317.902 107.103 317.275 108.827C316.845 110.01 316.514 111.345 316.514 112.611" stroke="#7B6823" stroke-width="3" stroke-linecap="round"/>
<path d="M316.514 113.164C317.945 113.289 319.334 113.567 320.778 113.614C322.187 113.661 323.606 113.58 325.012 113.664C327.517 113.815 329.988 114.549 332.502 114.549" stroke="#7B6823" stroke-width="3" stroke-linecap="round"/>
<path d="M332.641 114.618C333.906 114.674 335.293 114.904 336.509 115.272C339.005 116.026 341.687 116.802 343.945 118.132C344.565 118.498 345.392 118.942 345.876 119.494C346.145 119.8 346.294 120.156 346.449 120.528C346.594 120.879 346.838 121.159 346.991 121.501C347.311 122.216 347.51 122.987 347.575 123.769C347.626 124.388 347.788 125.521 347.414 126.069C346.811 126.95 345.616 126.574 344.722 126.692C343.536 126.848 342.388 127.212 341.185 127.276C340.138 127.332 338.917 127.419 337.916 127.092C336.358 126.582 334.72 125.983 333.29 125.177C332.348 124.646 331.513 123.982 330.607 123.4C329.886 122.938 329.128 122.513 328.365 122.124C327.789 121.83 327.168 121.659 326.581 121.393C325.473 120.893 324.429 120.266 323.37 119.67C322.196 119.01 321.206 118.244 320.159 117.398C318.738 116.25 317.194 114.832 316.652 113.026" stroke="#7B6823" stroke-width="3" stroke-linecap="round"/>
<path d="M456.248 35.1977C457.194 34.0947 457.842 33.0269 458.39 31.6921C458.659 31.0377 458.82 30.4045 458.996 29.723C459.585 27.4476 460.157 25.1709 460.731 22.8922C461.115 21.37 461.367 19.8104 461.708 18.2759C462.089 16.5645 462.456 14.8296 462.581 13.0753C462.705 11.3297 462.638 9.53179 462.61 7.78088C462.599 7.11665 462.399 6.501 462.235 5.86221C462.08 5.25737 461.835 4.63677 461.42 4.15993C460.947 3.61751 460.387 2.94735 459.757 2.59109C458.337 1.78791 456.064 1.87068 454.575 2.43601C453.517 2.83742 452.752 4.48369 452.443 5.53762C452.292 6.05545 452.057 6.54076 451.938 7.07039C451.787 7.74764 451.736 8.49105 451.711 9.18381C451.67 10.3243 451.704 11.4721 451.704 12.6136C451.704 13.7556 451.697 14.8978 451.704 16.0398C451.715 17.8897 452.104 19.5374 452.577 21.3126C452.823 22.2395 453.066 23.167 453.316 24.0932C453.425 24.4987 453.564 24.9076 453.583 25.3302C453.646 26.7247 453.968 28.0801 453.976 29.4777C453.983 30.6849 453.947 31.889 454.38 33.0265C454.753 34.0056 454.915 34.9091 455.599 35.717" stroke="#7B6823" stroke-width="3" stroke-linecap="round"/>
<path d="M455.859 35.5872C455.404 37.5173 455.534 39.4404 455.534 41.4153C455.534 42.579 455.517 43.7483 455.325 44.8992C455.156 45.9123 454.815 46.9188 454.496 47.8926C454.296 48.5 454.081 49.0951 453.947 49.7211C453.832 50.2595 453.574 50.6355 453.287 51.0988C452.889 51.7429 452.657 52.4597 452.31 53.1293C451.954 53.8174 451.513 54.4456 451.221 55.167C450.669 56.529 449.97 57.8563 449.064 59.0223C448.097 60.2666 446.935 61.4979 445.75 62.5315C445.269 62.9511 444.719 63.2804 444.188 63.6315C443.688 63.9622 443.327 64.1837 442.746 64.2807" stroke="#7B6823" stroke-width="3" stroke-linecap="round"/>
<path d="M445.602 62.9174C444.377 63.9957 443.002 64.9304 441.981 66.2138C440.59 67.9637 439.211 69.7282 437.826 71.4865C437.368 72.0685 436.832 72.7645 436.272 73.2609C435.961 73.5369 435.57 73.7159 435.241 73.9714C434.732 74.3663 434.253 74.7864 433.715 75.1435C433.143 75.5235 432.576 75.9161 431.991 76.276C431.462 76.6012 430.912 76.913 430.354 77.1848C429.603 77.5505 428.804 77.7516 428.028 78.0468C427.264 78.3368 426.641 78.7777 425.986 79.2513C425.148 79.8578 424.284 80.402 423.397 80.932C422.779 81.3011 422.158 81.5864 421.586 82.0356C420.605 82.8071 419.475 83.4121 418.351 83.9506C415.823 85.1629 413.094 86.0664 410.41 86.8647C410.013 86.9827 409.564 87.0371 409.191 87.2254C408.798 87.4238 408.452 87.6292 408.033 87.788C406.921 88.2097 405.805 88.6123 404.705 89.0647C404.343 89.2133 404.001 89.4686 403.601 89.4686" stroke="#7B6823" stroke-width="3" stroke-linecap="round"/>
<path d="M403.341 89.7283C401.752 89.9488 400.2 90.3665 398.696 90.9256C397.122 91.5108 395.524 91.9827 393.972 92.6351C390.972 93.8961 388.04 95.1787 384.88 96.0108C383.193 96.4551 381.519 96.833 379.852 97.3489C377.211 98.1664 374.529 98.7492 371.806 99.2279C370.041 99.5381 368.323 99.9919 366.613 100.526C365.849 100.765 365.006 101.024 364.197 101.024" stroke="#7B6823" stroke-width="3" stroke-linecap="round"/>
<path d="M363.288 101.349C363.266 101.263 361.033 101.718 360.763 101.825C360.267 102.022 359.673 102.08 359.144 102.124C358.807 102.152 358.483 102.084 358.163 102.225C357.898 102.342 357.615 102.367 357.341 102.456C356.554 102.711 355.813 103.061 355.058 103.383C354.767 103.506 354.392 103.526 354.084 103.592C353.675 103.679 353.245 103.765 352.829 103.801C352.494 103.83 352.251 103.889 351.949 104.014C351.612 104.153 351.263 104.112 350.918 104.208C349.85 104.506 348.791 104.804 347.729 105.114C346.069 105.598 344.38 106.254 342.644 106.351C342.266 106.372 341.906 106.517 341.533 106.578C341.234 106.627 340.993 106.599 340.711 106.708C339.983 106.989 339.285 107.328 338.555 107.617C338.112 107.792 337.639 107.871 337.177 107.974C336.263 108.177 335.391 108.412 334.458 108.529C332.429 108.783 330.425 109.227 328.615 110.199C327.025 111.053 325.046 111.373 323.27 111.591C321.98 111.749 320.745 111.948 319.491 112.305C318.974 112.452 318.452 112.774 317.911 112.774" stroke="#7B6823" stroke-width="3" stroke-linecap="round"/>
<path d="M316.072 113.23C312.71 113.867 309.33 114.182 306.131 115.437C304.349 116.136 302.6 116.93 300.798 117.577C299.981 117.87 299.139 118.071 298.33 118.386" stroke="#7B6823" stroke-width="3" stroke-linecap="round"/>
<path d="M298.026 118.613C296.548 118.909 295.079 119.298 293.738 119.978C292.578 120.566 291.329 120.992 290.217 121.646" stroke="#7B6823" stroke-width="3" stroke-linecap="round"/>
<path d="M289.307 122.253C289.245 122.089 289.01 122.274 288.928 122.328" stroke="#7B6823" stroke-width="3" stroke-linecap="round"/>
<path d="M288.094 122.708C287.628 122.874 287.24 123.176 286.83 123.445C286.38 123.74 285.893 123.851 285.381 124.001C284.49 124.261 283.653 124.295 282.849 124.763C281.875 125.332 280.952 126.009 279.896 126.406C278.407 126.967 276.93 127.45 275.372 127.805C273.913 128.137 272.46 128.622 271.147 129.355C270.385 129.78 269.705 130.339 268.948 130.779C268.054 131.298 267.157 131.816 266.261 132.333C264.53 133.332 262.726 134.215 261.101 135.379C259.806 136.305 258.57 137.282 257.31 138.251" stroke="#7B6823" stroke-width="3" stroke-linecap="round"/>
<path d="M257.362 138.606C254.104 139.388 250.875 140.713 248.134 142.69C245.83 144.352 243.162 145.872 241.275 148.037C239.635 149.919 238.837 152.508 237.489 154.598C236.862 155.568 236.063 156.486 235.155 157.205C234.722 157.548 234.332 157.775 234 158.217" stroke="#7B6823" stroke-width="3" stroke-linecap="round"/>
<path d="M488.38 95.3716C483.223 95.564 478.047 96.2216 473.003 97.3139C471.017 97.7439 468.935 98.1874 467.167 99.2384C466.049 99.9029 465.291 100.981 464.249 101.745C462.543 102.996 460.853 104.321 458.986 105.325C456.553 106.633 453.939 107.622 451.413 108.735C448.074 110.208 444.522 111.237 441.004 112.199C435.295 113.761 429.302 114.513 423.362 113.99C421.111 113.791 418.76 112.892 416.81 111.788C415.283 110.923 413.824 110.229 412.495 109.066" stroke="#7B6823" stroke-width="3" stroke-linecap="round"/>
<path d="M488.219 95.5327C487.542 95.5327 489.591 95.5308 490.242 95.3447C490.685 95.2181 490.789 94.8882 491.28 94.8882C491.772 94.8882 492.242 94.897 492.73 94.9688C493.243 95.0443 493.833 94.9779 494.323 95.1478C495.063 95.4037 495.657 95.9917 496.31 96.392C496.862 96.7296 497.452 96.9265 498.038 97.1707C498.689 97.4419 499.409 98.4172 499.927 98.8982C501.507 100.366 502.539 102.114 503.65 103.947C504.926 106.05 506.841 108.231 507.141 110.758C507.499 113.781 507.23 116.963 507.23 119.996C507.23 122.479 507.542 125.204 507.159 127.666C506.925 129.164 506.215 130.535 505.476 131.838C504.854 132.934 504.527 134.13 503.972 135.257C502.275 138.707 500.144 141.767 497.644 144.673C496.071 146.502 494.572 148.329 492.408 149.471C491.506 149.947 490.696 150.563 489.803 151.037C487.343 152.344 485.035 153.645 482.741 155.271C480.05 157.179 477.499 159.3 474.649 160.973C472.55 162.205 470.383 163.146 468.151 164.097C464.591 165.613 460.716 166.099 456.927 166.737C453.987 167.232 451.049 167.559 448.119 168.116C445.096 168.691 442.027 168.779 438.963 168.921C437.253 169 435.573 169.035 433.87 168.841C431.648 168.587 429.377 167.874 427.157 167.874" stroke="#7B6823" stroke-width="3" stroke-linecap="round"/>
<path d="M427.801 168.357C426.136 168.357 424.55 167.591 422.932 167.301C420.955 166.947 418.921 166.976 416.926 166.827C414.181 166.622 411.476 166.165 408.763 165.708C406.096 165.259 403.41 165.159 400.734 164.741C398.067 164.325 395.479 163.274 392.875 162.575C390.727 161.999 388.583 161.571 386.395 161.179C383.335 160.631 380.351 159.802 377.328 159.093C369.071 157.158 360.966 154.77 352.543 153.642C346.095 152.778 339.641 152.063 333.227 150.957" stroke="#7B6823" stroke-width="3" stroke-linecap="round"/>
<path d="M333.549 151.118C333.28 151.286 332.45 150.945 332.189 150.903C331.117 150.73 330.025 150.654 328.948 150.509C327.029 150.252 325.098 150.312 323.166 150.312C321.104 150.312 318.154 149.727 316.31 150.957" stroke="#7B6823" stroke-width="3" stroke-linecap="round"/>
<path d="M488.834 115.562C472.174 149.836 418.675 149.336 380.675 142.836" stroke="#7B6823" stroke-width="3" stroke-linecap="round"/>
<path d="M275.631 148.676C285.198 146.646 290.148 140.855 299.261 137.941C307.937 135.168 316.195 135.336 325.176 135.336" stroke="#7B6823" stroke-width="3" stroke-linecap="round"/>
<path d="M325.176 135.427C331.557 135.958 338.339 136.452 344.676 137.336C351.78 138.326 360.156 137.802 367.175 139.336C371.074 140.187 374.175 141.336 378.346 142.089C379.675 142.33 387.048 144.11 388.175 144.336" stroke="#7B6823" stroke-width="3" stroke-linecap="round"/>
<path d="M83.7016 78.4254C83.1508 77.9399 82.5454 77.5203 82.0079 77.0212C81.6158 76.6571 81.3511 76.2057 81.0018 75.8052C80.5756 75.3165 80.2028 74.7994 79.7895 74.3033C79.1474 73.5328 78.7074 72.6151 78.132 71.8026C77.3735 70.7319 76.8055 69.5349 76.1813 68.379C75.8871 67.8342 75.6191 67.2708 75.4032 66.689C75.1458 65.995 74.7918 65.3708 74.4912 64.6913C73.8768 63.3022 73.6179 61.8259 73.0545 60.4245C72.6252 59.3568 72.3727 58.2306 71.9905 57.1457C71.617 56.0853 71.1456 55.0357 70.8831 53.9392C70.6987 53.1687 70.5801 52.4686 70.5357 51.681C70.4956 50.9697 70.3475 50.2933 70.3475 49.5747C70.3475 49.1737 70.2692 48.6994 70.4705 48.337C70.7786 47.7826 71.092 47.3092 71.5345 46.8533C72.1391 46.2304 72.6436 45.7549 73.5069 45.507C74.5204 45.216 75.606 45.2222 76.6518 45.2826C77.3216 45.3213 77.653 45.8133 77.998 46.3466C78.686 47.4099 79.2739 48.5669 79.7641 49.7304C80.2766 50.9469 80.7305 52.1576 80.9294 53.4615C81.0463 54.2275 81.1535 55.0003 81.2407 55.7705C81.3413 56.6592 81.569 57.5276 81.7111 58.4087C81.8893 59.5135 82.0394 60.6201 82.2685 61.7165C82.6056 63.3299 83.2059 64.8992 83.242 66.5587C83.2815 68.3763 83.0393 70.2971 83.4844 72.0777C83.8105 73.382 84.1576 74.7344 84.1576 76.0911C84.1576 76.6849 84.1796 77.2782 84.1069 77.868C84.0682 78.182 83.957 78.4512 83.897 78.7511" stroke="#7B6823" stroke-width="3" stroke-linecap="round"/>
<path d="M58.3463 82.5856C57.7754 82.5856 57.131 82.6728 56.5697 82.5525C56.0104 82.4326 55.4255 82.1491 54.8833 81.9633C53.7664 81.5807 52.7215 81.0675 51.6427 80.5955C51.0881 80.3529 50.5734 80.1311 50.0646 79.7989C49.45 79.3978 49.0579 79.0207 48.6757 78.374C47.988 77.2102 47.7158 75.3831 48.6727 74.2948C49.0803 73.8313 49.7168 73.5228 50.308 73.3689C51.1399 73.1524 52.0312 73.0143 52.8782 72.8789C54.9676 72.5451 57.1497 72.666 59.2601 72.6835C60.2155 72.6915 61.0863 72.9633 62.0227 73.1044C62.594 73.1905 63.1727 73.2109 63.7452 73.2878C64.4737 73.3856 65.1954 73.527 65.9246 73.6214C66.4999 73.696 67.0738 73.7317 67.6291 73.91C68.1473 74.0764 68.6632 74.2608 69.1742 74.4481C70.0973 74.7866 71.0113 75.1529 71.9217 75.5243C72.5114 75.7648 73.0808 76.0509 73.6653 76.3029C74.7381 76.7653 75.9203 77.0201 76.9539 77.5594C77.7945 77.998 78.5742 78.5381 79.4069 78.9873C79.7733 79.185 80.2029 79.4133 80.6123 79.5043C80.7753 79.5406 80.9141 79.8914 80.8859 80.0364C80.7827 80.567 80.082 80.5761 79.6534 80.6376C78.9919 80.7325 78.3253 80.7489 77.6814 80.9382C76.9448 81.1549 76.2321 81.3545 75.4749 81.5004C74.6429 81.6606 73.8366 81.8464 73.0159 82.0565C71.8281 82.3606 70.6408 82.8069 69.4207 82.9523C68.0462 83.1161 66.6783 83.0605 65.3054 83.1868C64.7517 83.2377 64.2404 83.3431 63.6791 83.3431C62.8586 83.3431 62.0339 83.3663 61.2141 83.3311C60.0331 83.2803 58.9248 82.8293 57.7571 82.6637C57.4053 82.6138 57.0245 82.4773 56.6689 82.4773" stroke="#7B6823" stroke-width="3" stroke-linecap="round"/>
<path d="M138.05 98.5327C137.503 98.3072 136.982 97.8103 136.494 97.478C136.022 97.157 135.538 96.8523 135.068 96.5303C134.49 96.135 134.004 95.6131 133.472 95.1607C133.004 94.7616 132.55 94.4146 132.147 93.9426C131.891 93.6421 131.68 93.2976 131.408 93.0127C131.067 92.6562 130.701 92.3249 130.374 91.9551C129.434 90.8936 128.393 89.9154 127.403 88.898C126.203 87.6649 125.156 86.3208 123.85 85.1903C122.555 84.0703 121.061 83.1248 120.124 81.6579C119.203 80.2165 118.765 78.573 118.3 76.9549C118.13 76.3653 118.193 75.665 118.235 75.0625C118.296 74.1683 118.531 73.3653 118.959 72.5788C119.209 72.1199 119.597 71.6033 120.133 71.4796C120.669 71.3558 121.205 71.3667 121.752 71.3667C122.531 71.3667 123.272 71.3959 124.037 71.5598C124.983 71.7625 125.74 72.2738 126.431 72.9412C126.889 73.3836 127.207 73.863 127.581 74.3673C127.914 74.8174 128.255 75.2468 128.55 75.728C129.364 77.0582 130.182 78.4512 130.849 79.8635C132.159 82.6366 133.399 85.44 135.011 88.0602C135.696 89.1732 135.956 90.5461 136.298 91.7946C136.512 92.5767 136.716 93.3728 137.04 94.1179C137.321 94.764 137.695 95.4132 137.914 96.0817C138.059 96.524 138.239 96.9532 138.359 97.4037C138.426 97.653 138.422 97.9071 138.478 98.1583" stroke="#7B6823" stroke-width="3" stroke-linecap="round"/>
<path d="M137.248 98.9605C135.608 98.9605 133.985 99.006 132.367 99.2784C131.404 99.4406 130.413 99.6474 129.441 99.7299C128.431 99.8157 127.445 99.9171 126.446 100.083" stroke="#7B6823" stroke-width="3" stroke-linecap="round"/>
<path d="M125.911 100.083C124.327 100.166 122.739 100.316 121.303 101.052C120.638 101.393 120.069 101.835 119.357 102.086C118.758 102.297 118.159 102.532 117.548 102.707C116.034 103.139 114.579 103.799 113.142 104.433C112.668 104.642 112.248 104.795 111.808 105.086C111.366 105.379 110.923 105.648 110.498 105.966C109.89 106.421 109.346 106.858 109.194 107.618C108.943 108.873 108.478 110.08 108.478 111.379C108.478 112.124 108.751 112.582 109.411 112.986C109.878 113.272 110.426 113.401 110.95 113.542C111.667 113.734 112.377 113.9 113.116 113.984C113.747 114.056 114.391 114.057 115.026 114.035C115.729 114.01 116.315 113.772 116.981 113.583C117.696 113.38 118.439 113.373 119.155 113.155C119.915 112.924 120.743 112.804 121.455 112.442C122.136 112.096 122.771 111.728 123.487 111.45C124.386 111.102 125.357 110.901 126.223 110.476C126.906 110.14 127.567 109.786 128.258 109.466C128.961 109.14 129.725 108.914 130.394 108.524C131.493 107.883 132.517 107.035 133.564 106.31C134.511 105.656 135.425 104.982 136.345 104.29C136.91 103.866 137.343 103.325 137.831 102.82C138.258 102.376 138.448 101.894 138.728 101.355C139.059 100.717 139.441 100.126 139.441 99.3883" stroke="#7B6823" stroke-width="3" stroke-linecap="round"/>
<path d="M191.624 113.26C189.175 111.351 186.689 109.51 184.314 107.511C182.413 105.912 180.315 104.441 178.673 102.562C177.423 101.132 176.37 99.4579 175.251 97.9248C173.369 95.3473 171.515 92.7722 170.59 89.6807C170.319 88.7743 169.647 87.178 170.444 86.3392C170.88 85.8805 171.539 85.4607 172.121 85.2202C173.127 84.8041 174.547 84.5771 175.627 84.7357C176.263 84.8291 176.828 85.2172 177.335 85.5855C178.009 86.0756 178.694 86.5769 179.323 87.1236C180.363 88.0274 181.234 89.0766 182.003 90.2113" stroke="#7B6823" stroke-width="3" stroke-linecap="round"/>
<path d="M182.211 90.3497C182.933 91.3775 183.562 92.4489 184.218 93.5182C184.764 94.409 185.363 95.2332 185.86 96.156C187.232 98.7055 188.845 101.169 189.924 103.862C190.607 105.565 191.274 107.267 191.901 108.991C192.331 110.174 192.662 111.509 192.662 112.775" stroke="#7B6823" stroke-width="3" stroke-linecap="round"/>
<path d="M192.662 113.329C191.23 113.453 189.842 113.731 188.398 113.779C186.989 113.825 185.57 113.744 184.164 113.829C181.659 113.979 179.187 114.713 176.673 114.713" stroke="#7B6823" stroke-width="3" stroke-linecap="round"/>
<path d="M176.535 114.782C175.269 114.838 173.883 115.069 172.667 115.436C170.17 116.19 167.489 116.966 165.23 118.297C164.61 118.662 163.783 119.107 163.3 119.658C163.031 119.965 162.881 120.32 162.727 120.692C162.581 121.043 162.338 121.323 162.185 121.665C161.865 122.38 161.665 123.151 161.6 123.934C161.549 124.553 161.387 125.686 161.762 126.233C162.364 127.114 163.559 126.739 164.453 126.856C165.64 127.012 166.787 127.376 167.991 127.441C169.037 127.496 170.258 127.584 171.259 127.256C172.817 126.747 174.456 126.147 175.885 125.341C176.827 124.81 177.662 124.147 178.569 123.565C179.29 123.102 180.048 122.677 180.811 122.288C181.387 121.994 182.007 121.823 182.595 121.557C183.703 121.057 184.747 120.43 185.806 119.835C186.98 119.174 187.97 118.408 189.017 117.562C190.437 116.414 191.982 114.996 192.523 113.19" stroke="#7B6823" stroke-width="3" stroke-linecap="round"/>
<path d="M52.9258 35.362C51.9804 34.2591 51.332 33.1913 50.7835 31.8565C50.5146 31.2021 50.354 30.5689 50.1776 29.8873C49.5886 27.6119 49.0173 25.3353 48.4428 23.0566C48.0591 21.5343 47.8065 19.9748 47.4655 18.4402C47.0852 16.7289 46.7175 14.9939 46.5927 13.2396C46.4685 11.4941 46.5356 9.69615 46.5638 7.94524C46.5746 7.28102 46.7749 6.66537 46.9389 6.02657C47.0943 5.42174 47.3387 4.80113 47.754 4.3243C48.2264 3.78188 48.7867 3.11172 49.4166 2.75546C50.8367 1.95228 53.1098 2.03505 54.5992 2.60038C55.6567 3.00179 56.4217 4.64806 56.7306 5.70199C56.8824 6.21982 57.1172 6.70513 57.2356 7.23476C57.3869 7.91201 57.4376 8.65542 57.4628 9.34818C57.5042 10.4887 57.47 11.6365 57.47 12.778C57.47 13.92 57.4769 15.0622 57.47 16.2042C57.4588 18.0541 57.0696 19.7018 56.5972 21.4769C56.3505 22.4039 56.1076 23.3314 55.8579 24.2575C55.7485 24.6631 55.6102 25.072 55.591 25.4946C55.5276 26.8891 55.2055 28.2445 55.1979 29.6421C55.1912 30.8493 55.2273 32.0534 54.7939 33.1909C54.4209 34.17 54.2586 35.0734 53.5749 35.8814" stroke="#7B6823" stroke-width="3" stroke-linecap="round"/>
<path d="M53.3152 35.7515C53.7702 37.6817 53.6398 39.6047 53.6398 41.5797C53.6398 42.7433 53.6566 43.9127 53.849 45.0636C54.0183 46.0766 54.3587 47.0832 54.6785 48.057C54.8779 48.6644 55.0925 49.2594 55.2266 49.8855C55.342 50.4238 55.6003 50.7999 55.8866 51.2632C56.2846 51.9072 56.5174 52.624 56.864 53.2937C57.2201 53.9818 57.6607 54.61 57.9532 55.3313C58.5054 56.6934 59.2036 58.0206 60.1099 59.1867C61.0769 60.431 62.2391 61.6623 63.4243 62.6959C63.9054 63.1155 64.4549 63.4448 64.9859 63.7959C65.4861 64.1266 65.8466 64.348 66.4285 64.445" stroke="#7B6823" stroke-width="3" stroke-linecap="round"/>
<path d="M63.5721 63.0818C64.7972 64.1601 66.1726 65.0947 67.1931 66.3781C68.5846 68.128 69.9628 69.8926 71.3478 71.6509C71.8062 72.2328 72.3425 72.9289 72.9022 73.4253C73.2135 73.7013 73.6047 73.8803 73.9337 74.1357C74.4422 74.5306 74.9216 74.9508 75.4592 75.3079C76.0314 75.6878 76.598 76.0805 77.1832 76.4403C77.7121 76.7656 78.2623 77.0774 78.8205 77.3492C79.5717 77.7149 80.3699 77.9159 81.1467 78.2111C81.9101 78.5012 82.5335 78.942 83.188 79.4157C84.0261 80.0222 84.8902 80.5664 85.7775 81.0963C86.3956 81.4655 87.0163 81.7508 87.588 82.1999C88.5699 82.9714 89.6996 83.5765 90.823 84.115C93.3519 85.3272 96.08 86.2307 98.7646 87.0291C99.1614 87.1471 99.6105 87.2014 99.9836 87.3897C100.377 87.5881 100.722 87.7936 101.141 87.9523C102.254 88.374 103.369 88.7767 104.47 89.229C104.832 89.3777 105.174 89.633 105.574 89.633" stroke="#7B6823" stroke-width="3" stroke-linecap="round"/>
<path d="M105.833 89.8926C107.423 90.1131 108.975 90.5309 110.479 91.09C112.052 91.6751 113.651 92.147 115.203 92.7995C118.203 94.0605 121.135 95.343 124.295 96.1752C125.982 96.6195 127.656 96.9974 129.323 97.5132C131.964 98.3307 134.646 98.9136 137.369 99.3922C139.134 99.7025 140.853 100.156 142.562 100.691C143.326 100.929 144.17 101.188 144.979 101.188" stroke="#7B6823" stroke-width="3" stroke-linecap="round"/>
<path d="M145.887 101.513C145.909 101.428 148.143 101.882 148.412 101.989C148.908 102.186 149.502 102.244 150.031 102.288C150.368 102.316 150.693 102.248 151.012 102.389C151.277 102.506 151.561 102.531 151.835 102.62C152.621 102.875 153.363 103.225 154.118 103.547C154.408 103.671 154.784 103.691 155.091 103.756C155.5 103.843 155.93 103.929 156.346 103.965C156.682 103.995 156.924 104.053 157.226 104.178C157.564 104.318 157.912 104.276 158.258 104.373C159.325 104.671 160.384 104.968 161.446 105.278C163.107 105.762 164.796 106.419 166.531 106.515C166.909 106.536 167.27 106.681 167.642 106.742C167.942 106.791 168.182 106.763 168.464 106.872C169.192 107.153 169.891 107.492 170.621 107.781C171.064 107.956 171.537 108.035 171.999 108.138C172.913 108.341 173.785 108.577 174.718 108.693C176.746 108.947 178.75 109.391 180.561 110.363C182.151 111.217 184.129 111.537 185.905 111.755C187.195 111.914 188.431 112.113 189.685 112.469C190.202 112.617 190.724 112.938 191.265 112.938" stroke="#7B6823" stroke-width="3" stroke-linecap="round"/>
<path d="M193.104 113.394C196.466 114.031 199.846 114.347 203.045 115.601C204.827 116.3 206.576 117.094 208.378 117.741C209.195 118.035 210.038 118.235 210.846 118.55" stroke="#7B6823" stroke-width="3" stroke-linecap="round"/>
<path d="M211.15 118.777C212.628 119.073 214.097 119.463 215.438 120.142C216.598 120.731 217.847 121.156 218.96 121.81" stroke="#7B6823" stroke-width="3" stroke-linecap="round"/>
<path d="M219.87 122.417C219.931 122.253 220.167 122.438 220.249 122.493" stroke="#7B6823" stroke-width="3" stroke-linecap="round"/>
<path d="M221.083 122.872C221.549 123.038 221.936 123.34 222.346 123.609C222.796 123.904 223.283 124.016 223.795 124.165C224.686 124.425 225.524 124.459 226.327 124.928C227.302 125.496 228.225 126.173 229.28 126.57C230.769 127.131 232.246 127.614 233.804 127.969C235.263 128.301 236.717 128.786 238.029 129.519C238.791 129.945 239.472 130.504 240.228 130.943C241.123 131.463 242.019 131.98 242.916 132.497C244.647 133.496 246.45 134.38 248.076 135.543C249.371 136.47 250.606 137.446 251.867 138.416" stroke="#7B6823" stroke-width="3" stroke-linecap="round"/>
<path d="M251.815 138.77C255.073 139.552 258.302 140.877 261.043 142.855C263.347 144.517 266.015 146.036 267.902 148.201C269.543 150.083 270.34 152.672 271.688 154.762C272.315 155.733 273.114 156.651 274.022 157.37C274.455 157.712 274.845 157.939 275.177 158.382" stroke="#7B6823" stroke-width="3" stroke-linecap="round"/>
<path d="M20.7935 95.5359C25.9503 95.7284 31.127 96.3859 36.1711 97.4783C38.1565 97.9082 40.2391 98.3518 42.0071 99.4027C43.125 100.067 43.8832 101.145 44.9251 101.909C46.6311 103.16 48.321 104.485 50.1883 105.489C52.6209 106.798 55.2353 107.786 57.7608 108.9C61.1004 110.372 64.6521 111.401 68.1707 112.364C73.8796 113.926 79.8721 114.677 85.813 114.154C88.0632 113.956 90.4145 113.057 92.365 111.952C93.8917 111.087 95.3504 110.394 96.6794 109.231" stroke="#7B6823" stroke-width="3" stroke-linecap="round"/>
<path d="M20.9546 95.697C21.6318 95.697 19.5828 95.6951 18.9317 95.5091C18.4886 95.3825 18.3847 95.0526 17.8934 95.0526C17.4011 95.0526 16.9317 95.0613 16.4433 95.1331C15.93 95.2086 15.3409 95.1423 14.8501 95.3122C14.1108 95.5681 13.5168 96.156 12.863 96.5563C12.3116 96.8939 11.7214 97.0909 11.1354 97.3351C10.4846 97.6062 9.76477 98.5816 9.24678 99.0626C7.66659 100.53 6.63445 102.279 5.5232 104.111C4.24719 106.215 2.33223 108.395 2.03234 110.923C1.67373 113.945 1.94283 117.127 1.94283 120.16C1.94283 122.643 1.63099 125.369 2.01444 127.831C2.24773 129.329 2.95854 130.7 3.69721 132.002C4.31903 133.098 4.64658 134.294 5.20097 135.421C6.89786 138.872 9.02933 141.932 11.5293 144.838C13.1021 146.666 14.6019 148.493 16.7656 149.635C17.6678 150.112 18.4779 150.728 19.3703 151.202C21.8307 152.509 24.1381 153.809 26.4326 155.436C29.124 157.344 31.6751 159.465 34.5242 161.137C36.6234 162.37 38.7909 163.311 41.0226 164.261C44.583 165.778 48.4578 166.263 52.247 166.902C55.1872 167.397 58.1249 167.723 61.0547 168.28C64.0777 168.855 67.1468 168.944 70.2115 169.086C71.9217 169.165 73.6013 169.199 75.3046 169.005C77.5259 168.752 79.7976 168.038 82.0178 168.038" stroke="#7B6823" stroke-width="3" stroke-linecap="round"/>
<path d="M81.3733 168.522C83.0387 168.522 84.6244 167.756 86.2426 167.466C88.2199 167.111 90.2534 167.14 92.2487 166.991C94.9937 166.786 97.6989 166.33 100.412 165.872C103.078 165.423 105.765 165.323 108.441 164.906C111.107 164.49 113.695 163.438 116.3 162.739C118.448 162.163 120.592 161.735 122.78 161.343C125.84 160.795 128.824 159.966 131.848 159.258C140.104 157.323 148.21 154.935 156.633 153.806C163.081 152.943 169.535 152.227 175.949 151.121" stroke="#7B6823" stroke-width="3" stroke-linecap="round"/>
<path d="M175.627 151.282C175.896 151.451 176.726 151.11 176.987 151.067C178.059 150.895 179.151 150.818 180.227 150.674C182.147 150.416 184.078 150.477 186.01 150.477C188.072 150.477 191.022 149.892 192.866 151.121" stroke="#7B6823" stroke-width="3" stroke-linecap="round"/>
<path d="M20.3398 115.727C37 150 90.5 149.5 128.5 143" stroke="#7B6823" stroke-width="3" stroke-linecap="round"/>
<path d="M233.546 148.84C223.978 146.811 219.028 141.019 209.915 138.106C201.24 135.332 192.981 135.5 184 135.5" stroke="#7B6823" stroke-width="3" stroke-linecap="round"/>
<path d="M184 135.591C177.619 136.123 170.837 136.616 164.5 137.5C157.395 138.491 149.019 137.966 142 139.5C138.102 140.352 135 141.5 130.829 142.254C129.5 142.494 122.127 144.275 121 144.5" stroke="#7B6823" stroke-width="3" stroke-linecap="round"/>
</svg>
