<svg width="228" height="158" viewBox="0 0 228 158" fill="none" xmlns="http://www.w3.org/2000/svg">
<path d="M72.7037 99.6329C73.8314 95.9816 75.6381 93.2202 78.0003 90.2282C81.4578 85.8486 84.2268 81.0179 88.2877 77.1227C100.293 65.6077 118.111 64.4151 133.376 60.3504C154.149 54.8193 175.405 50.8058 195.882 44.2232C204.632 41.4102 212.759 37.6004 220.887 33.3925C222.782 32.412 224.466 31.1503 226.405 30.2689" stroke="#7B6823" stroke-width="2" stroke-linecap="round"/>
<path d="M111.205 62.3536C110.59 61.1915 109.396 60.8757 108.251 60.3334C106.135 59.3307 104.107 58.2772 101.936 57.3966C100.102 56.6521 98.1732 56.4188 96.2664 55.8857C93.598 55.1397 91.0198 54.0577 88.3216 53.4242C84.2955 52.4789 80.0003 51.9965 75.8952 51.5229C63.5614 50.0997 50.3583 50.3735 38.1745 52.7112C33.8151 53.5476 30.0792 55.4638 26.3592 57.7531C25.023 58.5753 25.8752 57.3675 26.4271 57.2098C28.1579 56.7153 30.7831 57.0684 32.5384 57.2268C36.7206 57.6041 41.0292 59.4381 45.0158 60.6729C52.8582 63.102 60.8636 64.4733 69.0199 65.3923C78.8046 66.4948 88.509 66.8409 98.3545 66.6145C104.152 66.4813 110.469 65.8989 116.094 64.4925" stroke="#7B6823" stroke-width="2" stroke-linecap="round"/>
<path d="M155.513 55.9366C154.394 55.3263 152.813 58.3743 152.423 58.9244C149.673 62.8083 146.747 65.6336 142.815 68.2952C134.212 74.1175 124.449 77.1405 117.113 84.8298C113.376 88.7468 108.842 93.4905 107.063 98.7162C105.382 103.655 105.094 109.076 105.094 114.249C105.094 119.462 103.22 125.719 97.0474 125.912C95.4199 125.963 98.1826 125.757 98.4054 125.708C102.311 124.853 106.138 123.167 109.457 120.955C119.568 114.214 128.722 105.178 134.055 94.1327C138.467 84.9959 140.917 74.8573 146.176 66.1732C147.5 63.9872 148.568 61.7567 150.352 59.8921C151.791 58.3875 153.225 56.8923 154.596 55.3255" stroke="#7B6823" stroke-width="2" stroke-linecap="round"/>
<path d="M223.043 35.7691C221.097 44.4531 213.872 50.5724 208.071 56.7515C204.495 60.5601 201.388 64.904 198.258 69.0761C194.278 74.3835 189.674 79.5481 187.122 85.7465C185.118 90.6142 185.423 95.7496 183.897 100.685C182.46 105.333 180.22 110.286 177.514 114.334C176.448 115.928 175.227 117.432 173.983 118.884C173.735 119.173 177.405 117.422 177.751 117.254C180.942 115.709 183.85 113.861 186.952 112.161C192.216 109.278 197.332 106.61 201.178 101.806C205.427 96.4984 207.127 89.6271 208.478 83.0983C209.705 77.169 210.431 71.1133 211.126 65.1037C212.194 55.8757 213.222 42.7241 221.821 36.9914" stroke="#7B6823" stroke-width="2" stroke-linecap="round"/>
<path d="M223.96 26.6021C222.031 27.7046 218.339 26.692 216.185 26.619C212.265 26.4862 208.348 25.7322 204.523 24.8705C200.07 23.8677 195.608 22.5779 191.281 21.1358C187.025 19.7169 182.55 18.8322 178.244 17.5369C175.455 16.6981 172.801 15.4463 169.959 14.7868C167.971 14.3251 165.967 14.2609 163.95 14.0398C162.056 13.8323 160.367 13.1571 158.45 13.1571C157.369 13.1571 157.798 12.6144 158.67 12.2404C160.686 11.3767 162.583 10.4982 164.425 9.28653C170 5.61918 175.785 2.27742 182.607 1.78313C187.33 1.44082 192.065 1.54546 196.798 1.54546C200.412 1.54546 204.309 1.11947 207.901 1.61337C211.353 2.08806 213.987 4.37613 217.102 5.68761C218.628 6.33006 219.813 6.62305 221.142 7.65683C222.657 8.83526 224.144 9.28779 225.182 11.0181" stroke="#7B6823" stroke-width="2" stroke-linecap="round"/>
<path d="M72.7037 98.7162C69.7935 97.7462 65.6995 99.191 62.8916 99.8706C57.6922 101.129 52.9311 103.392 48.4959 106.372C38.5239 113.074 31.1687 123.291 24.356 133.008C20.581 138.392 17.5337 144.391 11.8277 148.049C8.00181 150.501 4.8354 153.673 1.26859 156.401C0.832547 156.734 2.36796 156.46 2.91526 156.418C4.69516 156.281 6.37645 155.898 8.09295 155.416C13.1989 153.981 18.2879 152.455 23.2865 150.68C27.3779 149.227 31.0798 147.245 34.9151 145.231C39.5258 142.808 43.1684 139.898 47.1378 136.539C56.2266 128.848 65.0953 120.063 70.7345 109.445C72.6192 105.896 74.5371 102.157 74.5371 98.1051" stroke="#7B6823" stroke-width="2" stroke-linecap="round"/>
<path d="M73.0138 99.7838C71.3189 101.545 70.2853 103.915 68.895 105.912C66.8182 108.896 64.3687 111.676 62.0431 114.465C60.2835 116.575 58.5742 118.722 56.8476 120.858C54.7162 123.496 52.3619 125.958 50.1006 128.483C48.2918 130.503 46.5003 132.538 44.6898 134.557C43.1521 136.271 41.7163 138.094 40.0464 139.686C38.9967 140.687 37.7672 141.49 36.7391 142.518" stroke="#7B6823" stroke-linecap="round"/>
<path d="M71.8212 98.2931C68.7503 101.998 65.8016 105.803 62.8326 109.59C60.1608 112.997 57.7316 116.597 54.5949 119.605C51.6727 122.407 48.7515 125.212 45.5621 127.71C44.208 128.771 42.8575 129.821 41.6034 131.001C39.9613 132.547 38.5481 134.288 37.0539 135.97C34.7852 138.525 32.3124 140.777 29.6995 142.966C27.9554 144.427 26.4449 146.108 24.8243 147.697C24.148 148.361 23.6175 149.074 23.1789 149.911C23.061 150.137 22.9927 150.27 22.7262 150.27" stroke="#7B6823" stroke-linecap="round"/>
<path d="M69.0385 98.4918C63.6537 104.693 57.8133 110.27 51.3594 115.354C46.9842 118.8 42.3711 121.963 38.0532 125.48C35.9604 127.184 34.2829 129.247 32.7969 131.487C31.0551 134.113 29.376 136.469 26.6573 138.162C25.3121 139 23.8118 139.467 22.4446 140.244C21.6701 140.684 21.0874 141.27 20.4017 141.817C19.0462 142.898 17.4569 143.663 16.0675 144.705" stroke="#7B6823" stroke-linecap="round"/>
<path d="M10.7009 154.047C12.3845 153.122 13.9725 151.973 15.5817 150.933C18.5122 149.039 21.4996 147.259 24.471 145.434C26.5867 144.134 28.516 142.6 30.2793 140.851C32.0074 139.137 33.3985 137.197 34.873 135.274C36.4154 133.264 37.989 131.243 39.7372 129.405C41.3336 127.727 43.1685 126.283 44.9327 124.79C48.2552 121.976 51.9008 119.294 54.6502 115.884C55.8036 114.453 56.802 112.837 58.1175 111.544C58.8759 110.799 59.7312 110.156 60.5027 109.424C61.6618 108.324 62.6538 107.092 63.6056 105.813C65.517 103.244 67.609 100.883 69.7342 98.4918" stroke="#7B6823" stroke-linecap="round"/>
<path d="M20.8379 138.742C23.9908 135.061 27.5992 131.891 31.2455 128.71C32.7139 127.429 34.2321 126.184 35.6349 124.828C36.7295 123.771 37.7317 122.615 38.7765 121.51C41.3869 118.748 44.0631 116.052 46.9535 113.581C49.0215 111.814 51.0143 109.912 53.198 108.287C54.7182 107.155 56.2557 106.058 57.7199 104.852C58.7199 104.029 59.6312 103.078 60.6683 102.302C61.8729 101.4 63.2373 100.472 64.765 100.281" stroke="#7B6823" stroke-linecap="round"/>
<path d="M28.1923 127.213C31.1186 123.697 34.382 120.509 37.4625 117.132C38.8452 115.616 40.0827 113.961 41.5537 112.527C43.7027 110.432 46.5033 109.202 49.0516 107.679C51.4903 106.222 53.909 104.724 56.3838 103.328C57.2664 102.831 58.1789 102.297 59.1997 102.169" stroke="#7B6823" stroke-linecap="round"/>
<path d="M50.7521 131.388C50.9772 130.019 52.0213 128.793 52.7839 127.688C54.0573 125.844 55.379 124.027 56.7371 122.244C59.2942 118.887 61.9924 115.637 64.6712 112.378C66.3798 110.299 67.892 108.022 69.1765 105.658C70.1697 103.831 70.9693 101.925 71.9206 100.082" stroke="#7B6823" stroke-linecap="round"/>
<path d="M62.8768 120.952C62.2097 116.857 62.97 112.568 65.1627 109.026" stroke="#7B6823" stroke-linecap="round"/>
<path d="M40.317 138.841C40.2905 136.057 40.6049 133.128 41.228 130.416C41.3512 129.879 41.5437 129.442 41.8077 129.002" stroke="#7B6823" stroke-linecap="round"/>
<path d="M40.2175 126.418C41.7881 124.391 43.46 122.438 45.0873 120.455" stroke="#7B6823" stroke-linecap="round"/>
<path d="M43.1991 58.4406C44.614 58.0364 46.3889 58.2739 47.8149 58.3302C50.7166 58.4447 53.6343 58.6137 56.5164 58.9817C60.7754 59.5256 64.9912 60.4076 69.1545 61.4442C70.4219 61.7597 71.7108 62.0443 72.9587 62.4325C73.9606 62.7442 74.927 63.1383 75.9457 63.3987C77.4208 63.7758 78.9359 64.0815 80.3682 64.6024" stroke="#7B6823" stroke-linecap="round"/>
<path d="M61.0879 57.7449C66.7552 57.7774 72.4417 57.7003 78.0823 58.3412C80.2518 58.5878 82.4007 58.9814 84.5643 59.2688C90.3503 60.0374 96.0941 60.7142 101.94 60.8092C104.737 60.8547 107.553 60.7133 110.349 60.8424C111.573 60.8989 112.405 61.2563 113.286 62.0626C113.439 62.2022 114.595 63.0798 114.147 63.211C113.857 63.2962 113.553 63.3024 113.253 63.3104C112.084 63.3414 110.936 63.5068 109.785 63.7024C106.655 64.2344 103.574 65.0321 100.438 65.5244C98.0974 65.8917 95.7277 66.0402 93.3873 66.3912" stroke="#7B6823" stroke-linecap="round"/>
<path d="M108.593 62.9128C105.273 63.5235 101.976 64.2624 98.627 64.7128C94.6455 65.2483 90.5769 65.1368 86.6348 64.3484C83.8828 63.798 81.4704 62.3286 78.6787 62.0184" stroke="#7B6823" stroke-linecap="round"/>
<path d="M101.04 61.1239C96.8723 61.675 92.7611 62.2544 88.5452 62.1067C86.4507 62.0334 84.4119 61.683 82.3448 61.389C80.4892 61.125 78.6607 61.0592 76.7904 61.0246" stroke="#7B6823" stroke-linecap="round"/>
<path d="M103.822 60.4283C99.15 59.3471 94.3947 59.082 89.688 58.2419C86.4309 57.6605 83.2405 56.7536 79.9927 56.1217C77.0057 55.5406 73.6513 54.978 70.6286 54.631C60.6835 53.4892 71.8413 54.907 63.1749 54.1672" stroke="#7B6823" stroke-linecap="round"/>
<path d="M73.7095 56.453C69.2397 55.5683 64.7039 54.8967 60.1824 54.3438C56.5323 53.8975 52.7729 53.6759 49.0958 53.9463C46.8557 54.111 44.8699 54.9818 42.8181 55.8291C41.2149 56.491 39.5926 57.0479 37.9318 57.5462" stroke="#7B6823" stroke-linecap="round"/>
<path d="M141.076 71.9359C137.263 78.1436 133.114 84.1256 127.934 89.2875C125.945 91.27 123.742 93.0096 121.695 94.9281C118.409 98.0089 115.968 101.621 113.705 105.497C111.673 108.978 109.922 112.61 107.809 116.044C107.184 117.058 106.437 118.017 105.829 119.03" stroke="#7B6823" stroke-linecap="round"/>
<path d="M107.591 120.988C108.561 120.297 108.269 120.532 109.593 119.324C111.391 117.682 114.8 114.445 116.37 112.927C118.491 110.877 121.917 107.524 123.996 105.301C125.74 103.437 127.368 101.531 128.571 99.2742C129.492 97.5457 130.125 95.728 130.698 93.862C131.316 91.8486 132.051 89.9367 132.852 87.993" stroke="#7B6823" stroke-linecap="round"/>
<path d="M111.116 114.428C112.982 111.736 115.097 109.434 117.317 107.02C120.658 103.385 123.792 99.7365 126.428 95.5537C128.504 92.2584 130.541 88.9765 132.808 85.8063C135.312 82.3055 137.042 78.5087 138.726 74.5794" stroke="#7B6823" stroke-linecap="round"/>
<path d="M111.997 106.987C113.698 103.361 113.89 102.625 116.294 99.0675C119.312 94.6012 122.818 90.3977 126.574 86.5352C128.688 84.3622 131.07 82.4555 133.352 80.4648C135.859 78.2782 137.828 75.629 140.097 73.2087" stroke="#7B6823" stroke-linecap="round"/>
<path d="M111.605 103.952C111.785 102.728 111.88 101.489 112.144 100.281C112.85 97.0396 113.607 95.1777 115.163 92.2085C116.921 88.8531 119.118 85.6912 121.875 83.0758C124.723 80.3739 128.197 78.1031 131.644 76.233C133.088 75.4496 134.506 74.6265 135.93 73.807C136.905 73.2458 137.741 72.6963 138.824 72.4254" stroke="#7B6823" stroke-linecap="round"/>
<path d="M117.969 91.9093C120.363 88.997 123.12 86.4305 126.074 84.0875C128.604 82.0804 131.327 80.4973 134.135 78.9309C135.583 78.123 137.079 77.3449 138.421 76.3635C139.221 75.7789 139.629 75.1546 140.195 74.3836" stroke="#7B6823" stroke-linecap="round"/>
<path d="M135.201 77.0272C135.976 75.9213 137.246 75.0365 138.237 74.1443C139.103 73.3636 139.847 72.6134 140.586 71.7401" stroke="#7B6823" stroke-linecap="round"/>
<path d="M178.551 115.209C183.63 112.842 188.781 110.399 193.182 106.872C196.652 104.09 198.789 100.128 200.639 96.1649C203.092 90.9075 204.887 85.3674 207.287 80.087" stroke="#7B6823" stroke-linecap="round"/>
<path d="M183.66 111.633C188.312 106.108 193.515 100.91 197.666 94.9871C199.856 91.8627 201.49 88.3834 202.803 84.8125C204.95 78.9737 207.214 73.2463 210.735 68.0818" stroke="#7B6823" stroke-linecap="round"/>
<path d="M186.597 105.758C187.596 104.44 187.009 105.242 188.556 102.92C191.631 98.3047 194.696 93.6899 197.95 89.1974C200.615 85.5171 203.812 82.0106 205.783 77.8733C207.398 74.482 207.974 70.6758 209.331 67.1879" stroke="#7B6823" stroke-linecap="round"/>
<path d="M188.002 102.054C188.638 99.5024 188.513 99.816 189.705 96.4913C191.998 90.0946 194.509 83.7574 197.489 77.6463C198.987 74.5723 200.738 71.4628 202.789 68.7062C204.736 66.0887 207.179 64.3965 209.841 62.5901" stroke="#7B6823" stroke-linecap="round"/>
<path d="M196.559 85.0679C198.517 80.9125 200.285 76.6929 202.597 72.7151C203.976 70.3438 205.284 67.8489 206.308 65.3005C207.17 63.155 207.966 60.9988 208.947 58.9006C209.697 57.2978 210.291 55.7755 210.608 54.0333" stroke="#7B6823" stroke-linecap="round"/>
<path d="M186.981 91.7091C187.723 89.7072 187.537 90.1039 188.854 87.4235C191.177 82.6924 193.574 77.9267 196.453 73.5026C198.309 70.6499 200.881 68.5306 203.626 66.5777C206.382 64.6169 209.307 62.8656 211.885 60.6744" stroke="#7B6823" stroke-linecap="round"/>
<path d="M164.515 12.3517C173.049 12.5319 181.285 13.3513 189.593 15.3353C195.259 16.6883 200.998 17.7281 206.748 18.6615C211.491 19.4313 216.564 19.5557 221.182 20.9596C222.472 21.3517 223.583 21.8175 224.569 22.6933" stroke="#7B6823" stroke-linecap="round"/>
<path d="M168.144 9.63031C181.421 10.5515 194.917 9.79808 208.008 12.6441C212.779 13.6811 216.535 16.0234 220.396 18.8832" stroke="#7B6823" stroke-linecap="round"/>
<path d="M176.671 5.82028C183.634 6.03453 190.597 6.08297 197.395 7.77569C201.148 8.71038 204.873 9.79393 208.603 10.8197C210.779 11.4182 212.967 12.1086 214.923 13.2589C215.743 13.7414 216.56 14.4772 217.493 14.7103" stroke="#7B6823" stroke-linecap="round"/>
<path d="M196.266 4.36884C199.582 5.07921 205.607 6.33803 209.087 7.19108C211.45 7.77045 213.918 8.3353 215.991 9.67062C217.915 10.9099 219.506 12.5953 221.283 14.0249C222.879 15.3093 224.644 16.4762 225.929 18.097C226.411 18.7042 226.805 19.3659 227.29 19.9718" stroke="#7B6823" stroke-linecap="round"/>
<path d="M215.497 13.6218C218.399 15.1325 220.961 16.9011 223.662 18.7018" stroke="#7B6823" stroke-linecap="round"/>
<path d="M220.214 17.7946C222.029 18.4971 223.456 19.6365 224.932 20.879" stroke="#7B6823" stroke-linecap="round"/>
<path d="M199.531 19.6089C203.982 21.0926 208.476 22.4587 213.018 23.6407C215.451 24.274 218.445 25.3444 220.98 24.4874C222.134 24.0976 223.38 23.7251 224.024 22.6933" stroke="#7B6823" stroke-linecap="round"/>
</svg>
