<svg width="148" height="194" viewBox="0 0 148 194" fill="none" xmlns="http://www.w3.org/2000/svg">
<path d="M2 148C3.16513 147.451 4.40328 147.169 5.59787 146.707C7.19948 146.087 8.84706 145.589 10.4665 145.021C12.4009 144.343 14.3492 143.741 16.1975 142.838C17.5976 142.154 18.9325 141.351 20.3466 140.696C23.8609 139.069 27.342 137.251 30.6809 135.257C32.1409 134.384 33.647 133.595 35.1412 132.785C37.0207 131.767 38.6988 130.438 40.5814 129.424C43.9573 127.607 47.2879 125.801 50.4156 123.555C55.468 119.927 60.3841 116.096 65.0724 111.974C65.7838 111.348 66.5053 110.729 67.1954 110.079C67.8662 109.446 68.3826 108.703 68.9969 108.021C70.611 106.228 79.5 95.5 81 93.5C82.5 91.5 84.8364 86.8232 86 85C86.8538 83.6623 91.4692 73.6897 92.5 72.5" stroke="#7B6823" stroke-width="3" stroke-linecap="round"/>
<path d="M12.7351 143.208C12.8312 143.179 12.9022 143.012 12.9518 142.942C13.3512 142.383 13.7705 141.839 14.1672 141.278C14.8076 140.371 15.5784 139.558 16.2069 138.641C17.1893 137.209 18.3653 135.919 19.4821 134.591C20.9036 132.901 22.0515 131.065 23.1103 129.133" stroke="#7B6823" stroke-width="3" stroke-linecap="round"/>
<path d="M23.271 128.811C24.487 126.642 25.556 124.309 26.0413 121.852C26.1344 121.381 26.1749 120.904 26.3273 120.447C26.381 120.286 26.4479 120.135 26.4479 119.964" stroke="#7B6823" stroke-width="3" stroke-linecap="round"/>
<path d="M26.6952 119.48C26.6952 115.942 26.5624 112.359 26.7129 108.823C26.8606 105.352 28.0301 102.202 29.0183 98.9196C29.9613 95.7875 30.8472 92.7635 32.1706 89.7627C33.7612 86.1557 36.0351 82.9791 38.187 79.7001C39.8426 77.1772 41.7605 74.8716 43.8328 72.678C45.9069 70.4827 47.8698 68.2176 49.8904 65.9735C51.1473 64.5776 52.714 63.2016 54.4306 62.4213" stroke="#7B6823" stroke-width="3" stroke-linecap="round"/>
<path d="M26.6953 119.692C26.9917 119.08 27.8166 118.747 28.3656 118.421C29.2024 117.925 30.0319 117.402 30.8944 116.951C32.3996 116.164 33.6766 114.825 34.9524 113.716C37.9533 111.108 40.604 108.462 42.7508 105.095C44.4912 102.365 45.702 99.3939 46.8793 96.3907C47.8245 93.9796 48.5724 91.5213 49.2671 89.0275C50.8856 83.2173 52.1715 77.4334 52.8781 71.4312C53.1522 69.1029 53.3403 66.7543 53.6661 64.4327C53.7084 64.1312 53.7109 63.8821 53.7955 63.5858" stroke="#7B6823" stroke-width="3" stroke-linecap="round"/>
<path d="M53.9014 63.4799L54.0072 63.2682" stroke="#7B6823" stroke-width="3" stroke-linecap="round"/>
<path d="M27.887 114.871C28.6132 111.666 29.0766 108.414 29.9459 105.237C30.9922 101.414 32.9547 97.8831 34.6599 94.3267C38.0466 87.263 39.4824 78.2516 46.5526 73.7525" stroke="#7B6823" stroke-linecap="round"/>
<path d="M30.051 116.043C30.3706 115.45 30.5678 114.736 30.7924 114.114C31.366 112.527 31.958 110.95 32.676 109.42C34.2801 106.003 36.2835 102.778 38.2967 99.5917C40.014 96.8738 41.5565 93.9775 43.5067 91.4161C45.1181 89.2998 47.0451 87.4584 48.9871 85.6552" stroke="#7B6823" stroke-linecap="round"/>
<path d="M28.3377 117.937C28.3377 116.549 28.0985 114.951 28.4379 113.593C28.5809 113.022 28.7987 112.519 29.0491 111.99C29.3283 111.401 29.4473 110.815 29.8055 110.247C30.3494 109.384 30.8192 108.466 31.3986 107.627C31.8454 106.98 32.3239 106.368 32.706 105.678C33.1582 104.862 33.709 104.129 34.239 103.364C34.7384 102.642 35.0684 101.838 35.5214 101.09C36.412 99.6191 38.5 96 38.8321 94.6708C40.2797 92.8378 41.2845 89.4969 42.5 87.5C44.6126 84.5783 44.806 84.1333 46 81C46.8794 78.6924 48.2849 77.3859 49.438 75.1952" stroke="#7B6823" stroke-linecap="round"/>
<path d="M49.438 75.0149V74.7444" stroke="#7B6823" stroke-linecap="round"/>
<path d="M49.6184 74.3837L49.8889 73.7525" stroke="#7B6823" stroke-linecap="round"/>
<path d="M49.979 73.4819C50.2629 73.0978 50.526 72.7066 50.7906 72.3097" stroke="#7B6823" stroke-linecap="round"/>
<path d="M1.50464 192.27C2.46824 191.866 2.82663 191.705 3.8 191.338C4.65295 191.017 5.52896 190.756 6.37364 190.413C7.19175 190.081 7.98109 189.662 8.78334 189.293C9.78289 188.833 10.7553 188.333 11.7259 187.815C13.2369 187.009 14.8267 186.399 16.4007 185.732C18.837 184.698 21.1233 183.439 23.4141 182.12C25.4273 180.961 27.6778 180.28 29.8903 179.611" stroke="#7B6823" stroke-width="3" stroke-linecap="round"/>
<path d="M1.50464 179.145H29.7738" stroke="#7B6823" stroke-width="3" stroke-linecap="round"/>
<path d="M1.23291 184.465H15.6005" stroke="#7B6823" stroke-linecap="round"/>
<path d="M0.960938 187.222H11.8337" stroke="#7B6823" stroke-linecap="round"/>
<path d="M1.50464 190.368H2.51425" stroke="#7B6823" stroke-linecap="round"/>
<path d="M1.54346 181.553H22.3182" stroke="#7B6823" stroke-linecap="round"/>
<path d="M6.24194 182.795H21.4638" stroke="#7B6823" stroke-linecap="round"/>
<path d="M12.9209 189.513L12.9597 189.474" stroke="#7B6823" stroke-linecap="round"/>
<path d="M15.2119 188.115C15.2398 188.091 15.2565 188.087 15.2896 188.076" stroke="#7B6823" stroke-linecap="round"/>
<path d="M18.5903 187.416L18.668 187.3" stroke="#7B6823" stroke-linecap="round"/>
<path d="M21.1143 185.514C21.1806 185.508 21.2437 185.489 21.3084 185.475" stroke="#7B6823" stroke-linecap="round"/>
<path d="M24.5315 183.96L24.8421 183.805" stroke="#7B6823" stroke-linecap="round"/>
<path d="M27.8323 182.601L28.1429 182.368" stroke="#7B6823" stroke-linecap="round"/>
<path d="M91.7984 72.7547C91.784 64.9864 92.2922 57.5517 94.6559 50.0792C96.7149 43.5698 99.915 37.3915 104.039 31.9572C108.739 25.7654 114.586 20.7558 121 16.4162C125.947 13.0693 130.699 9.47654 135.527 5.96337C137.538 4.49985 139.71 2.60052 142.072 1.74167" stroke="#7B6823" stroke-width="3" stroke-linecap="round"/>
<path d="M92.2961 72.4228C95.1181 71.2134 98.0869 70.4677 100.961 69.3994C105.448 67.7314 109.533 65.1665 112.842 61.6842C117.551 56.7296 121.062 50.5274 123.728 44.272C125.898 39.183 127.225 33.8272 128.909 28.5743C130.995 22.0685 133.756 15.8087 136.135 9.41078C136.788 7.6561 137.686 6.04621 138.44 4.34105C138.595 3.99018 138.692 3.70335 138.919 3.40085" stroke="#7B6823" stroke-width="3" stroke-linecap="round"/>
<path d="M96.9631 69.7973C97.628 69.0542 98.3949 68.45 99.2547 67.9445C100.846 67.009 102.215 65.759 103.526 64.4634C106.601 61.4244 108.948 57.8309 112.326 55.0974C113.518 54.133 114.802 53.253 115.871 52.1476C116.826 51.159 117.714 50.0854 118.591 49.0273C119.495 47.9367 120.156 46.6806 121.053 45.5851C121.786 44.6908 122.585 43.8507 123.291 42.9425" stroke="#7B6823" stroke-linecap="round"/>
<path d="M95.9976 70.8504C96.4396 69.5854 96.7771 68.4787 97.392 67.2815C98.29 65.5329 99.5369 64.0584 100.878 62.6399C102.471 60.9547 104.218 59.4731 105.924 57.9106C109.422 54.7066 112.216 50.9999 114.925 47.1356C117.355 43.6673 119.862 40.3014 122.813 37.2479C123.939 36.083 125.132 35.0468 126.187 33.8154" stroke="#7B6823" stroke-linecap="round"/>
<path d="M93.8914 71.2892C94.733 67.7875 96.6139 64.4804 98.3574 61.3625C99.7929 58.7955 101.376 56.266 103.457 54.1661C106.323 51.2752 109.492 48.6918 112.38 45.8191C113.593 44.6117 114.627 43.5441 115.607 42.1722C115.862 41.8158 116.624 40.4776 116.875 40.0562C118.252 37.746 120.261 35.8583 122.209 34.03C124.033 32.3178 125.973 30.6758 128.03 29.2519" stroke="#7B6823" stroke-linecap="round"/>
<path d="M92.5749 70.2361C92.5314 67.7144 92.3565 67.147 93.1015 64.5316C94.5891 59.309 94.7032 61.2165 96.6997 55.7556" stroke="#7B6823" stroke-linecap="round"/>
<path d="M92.7505 65.7603C94.5552 64.1092 96.1425 62.0349 97.314 59.895C97.7859 59.033 98.1617 58.0937 98.3282 57.1207C98.4229 56.5668 98.3663 56.2496 98.6353 55.6922C100.609 51.6018 104.216 48.3288 107.631 45.4535C109.529 43.855 111.161 42.1326 112.726 40.2122C115.098 37.3004 117.508 34.4482 120.19 31.8164C121.309 30.7192 122.522 29.739 123.935 29.0471C124.786 28.6306 125.643 28.3322 126.451 27.8477" stroke="#7B6823" stroke-linecap="round"/>
<path d="M96.6121 55.9311C97.5015 52.3978 99.4617 49.3955 101.595 46.4773C102.854 44.7552 104.25 43.1764 105.115 41.2068C105.91 39.3976 106.513 37.523 107.46 35.7803C108.568 33.7409 110.004 31.935 111.346 30.0515C112.871 27.9112 113.976 25.5234 115.49 23.3719C115.921 22.7603 116.299 22.1854 116.617 21.5095C116.736 21.2553 116.852 21.0816 117.06 20.9146" stroke="#7B6823" stroke-linecap="round"/>
<path d="M103.282 48.4714C105.592 45.4542 108.168 42.6348 110.361 39.5296C111.751 37.5624 112.972 35.4372 114.184 33.3571C115.437 31.2053 116.554 28.9748 117.86 26.8531C118.864 25.2224 120.084 23.7259 121.39 22.3285C123.604 19.9593 126.053 17.8493 127.416 14.8396C127.703 14.2061 128.294 13.3932 128.294 12.6651" stroke="#7B6823" stroke-linecap="round"/>
<path d="M119.693 31.4459C120.577 28.9449 121.526 26.6047 123.096 24.4446C124.071 23.1033 125.232 21.8392 126.451 20.7147C127.833 19.4396 129.276 18.3158 130.556 16.9264C131.084 16.3537 131.548 15.8719 132.194 15.4345C132.487 15.236 132.784 15.108 133.033 14.8592" stroke="#7B6823" stroke-linecap="round"/>
<path d="M59.6897 117.017C62.1089 116.534 64.3795 115.909 66.8602 115.988C69.2078 116.063 71.5453 116.269 73.8687 116.601C77.4303 117.11 80.9774 117.726 84.5435 118.203C88.4327 118.723 92.2658 119.362 96.1897 119.562C98.8345 119.697 101.522 119.922 104.17 119.735C106.645 119.561 109.103 118.756 111.456 118.018C115.804 116.654 119.855 114.458 124.027 112.646C129.898 110.096 136.148 108.704 142.069 106.32C143.159 105.881 144.179 105.315 145.25 104.839" stroke="#7B6823" stroke-width="3" stroke-linecap="round"/>
<path d="M64.2695 115.768C66.5416 114.887 68.7979 114.015 70.9658 112.894C72.7139 111.991 74.3805 110.95 76.1471 110.078C79.0715 108.636 82.0465 107.292 85.1796 106.366C88.296 105.445 91.6054 105.192 94.8192 104.787C100.483 104.073 106.187 104.215 111.884 104.215C115.82 104.215 119.756 104.215 123.692 104.215C127.682 104.215 131.714 104.059 135.697 104.365C137.717 104.52 139.684 104.921 141.711 104.995C142.995 105.043 144.277 105.047 145.562 105.047" stroke="#7B6823" stroke-width="3" stroke-linecap="round"/>
<path d="M72.0762 115.04C78.5633 112.315 84.8662 109.398 91.7371 107.765C95.0642 106.975 98.3814 106.6 101.77 106.233C102.988 106.101 104.194 105.843 105.384 105.568" stroke="#7B6823" stroke-linecap="round"/>
<path d="M77.4888 115.664C83.686 113.517 89.7674 111.08 96.3055 110.263C101.809 109.576 107.355 109.083 112.879 108.575C119.104 108.003 125.371 107.933 131.614 107.65" stroke="#7B6823" stroke-linecap="round"/>
<path d="M83.3176 116.601C89.1621 115.114 94.9865 113.611 101.001 112.993C104.544 112.629 108.114 112.673 111.664 112.426C114.641 112.219 117.605 111.834 120.581 111.605" stroke="#7B6823" stroke-linecap="round"/>
<path d="M87.0647 118.683C95.6831 117.606 104.266 116.248 112.878 115.144" stroke="#7B6823" stroke-linecap="round"/>
<path d="M112.566 115.248C113.078 115.76 114.255 115.768 114.96 115.768" stroke="#7B6823" stroke-linecap="round"/>
<path d="M120.581 111.709C121.163 111.866 121.879 112.06 122.351 112.438" stroke="#7B6823" stroke-linecap="round"/>
</svg>
