<svg width="147" height="142" viewBox="0 0 147 142" fill="none" xmlns="http://www.w3.org/2000/svg">
<path d="M75.8728 85.2887C73.9676 85.2887 73.335 82.859 72.8967 81.3894C72.243 79.1974 71.5847 76.9712 71.0625 74.7449C70.8748 73.9448 70.5267 71.4808 69.3983 71.3072C68.2792 71.135 67.6344 71.2471 67.5762 72.4976C67.555 72.9536 67.2761 74.962 67.9528 75.0121C68.5376 75.0554 69.3093 75.5911 69.8478 75.4373C70.1201 75.3595 69.9818 74.1565 69.9693 73.9189C69.9413 73.387 69.052 73.3418 68.6574 73.2629" stroke="#7B6823" stroke-width="2" stroke-linecap="round"/>
<path d="M76.5288 84.8514C75.2989 84.8514 75.6704 81.724 75.6056 80.94C75.5027 79.6966 74.8859 78.6898 74.731 77.4659C74.3603 74.5372 73.0612 71.9343 72.3744 69.0842C72.2104 68.4034 72.1283 67.6585 71.7185 67.0678C71.4882 66.7359 71.1963 66.5949 71.1111 66.1689C70.9424 65.3254 70.8461 65.1764 70.4066 64.4683C70.0447 63.8853 70.3543 63.1829 70.0421 62.5976C69.8721 62.2788 69.3693 60.8463 69.702 61.8445C70.1783 63.2734 70.7355 65.1448 71.6699 66.2661C72.0433 66.7142 71.7185 65.1002 71.7185 64.5169C71.7185 64.0616 71.8856 63.2205 71.6213 62.8163C71.2505 62.2492 69.2459 61.9386 68.9246 62.549C68.6145 63.1382 68.6484 66.4803 69.0947 66.7034" stroke="#7B6823" stroke-width="2" stroke-linecap="round"/>
<path d="M70.8438 67.1407L70.1879 66.7034" stroke="#7B6823" stroke-width="2" stroke-linecap="round"/>
<path d="M76.7474 83.5395C76.7474 80.2622 78.5639 77.5664 80.1973 74.7935C81.7292 72.1927 83.2785 68.97 83.8414 65.9989C84.0351 64.9766 84.9565 62.1117 83.2584 62.1117C82.5556 62.1117 81.9158 62.0338 81.8007 62.9256C81.6087 64.4139 81.7764 66.0419 81.7764 67.5416C81.7764 67.8709 81.8009 70.7875 82.0436 70.7606C82.3616 70.7252 82.2137 68.0904 82.2137 67.6995C82.2137 66.8168 82.2137 65.9341 82.2137 65.0514C82.2137 64.1794 83.1149 62.5752 82.4809 61.8566C81.0533 60.2386 80.8072 64.5077 80.7803 64.7598C80.6152 66.3077 80.6831 67.8817 80.6831 69.4365C80.6831 72.3742 81.0046 75.1666 79.1526 77.6359" stroke="#7B6823" stroke-width="2" stroke-linecap="round"/>
<path d="M77.4033 85.726C77.4033 85.8165 77.4127 85.3037 77.5613 85.1551C78.3164 84.4 79.4172 84.0484 80.2701 83.418C82.2832 81.93 83.641 79.8159 85.0561 77.806C87.1905 74.7745 89.2965 71.7837 91.6885 68.9385C92.3502 68.1515 93.2278 67.3348 93.377 66.2904C93.3904 66.1965 93.5276 65.9148 93.6685 66.0839C93.8675 66.3227 93.349 67.0597 93.2434 67.2257C93.0687 67.5002 90.8504 69.5337 90.7775 69.4851C90.3227 69.1819 91.2105 67.4131 91.5184 67.25C93.2285 66.3447 91.4392 69.7227 90.9597 70.3354C90.5108 70.909 89.9943 71.2331 89.5263 71.7324C89.468 71.7945 90.7446 71.4033 91.0326 71.125C92.2016 69.995 93.8414 68.6968 93.8021 66.9706C93.7812 66.0486 92.8505 64.79 91.8343 65.5373C91.2328 65.9795 90.6794 66.7545 90.4252 67.4322C89.8555 68.9515 89.0357 70.4166 88.5545 71.951C88.1082 73.3744 87.3338 74.5091 86.8418 75.8867C86.2992 77.4059 85.7993 78.8997 85.0561 80.3448C84.2356 81.9403 82.7962 83.313 81.582 84.6206C80.8437 85.4157 80.6187 85.7562 79.517 85.5559C79.0026 85.4624 78.4585 85.5073 77.9378 85.5073C77.3166 85.5073 75.8063 85.8291 75.4355 85.2401C74.7169 84.0988 75.1285 82.0531 76.3101 81.4623C77.5188 80.8579 78.9339 81.2912 78.9339 82.9078C78.9339 83.9768 78.9485 80.7698 78.9339 79.701C78.9099 77.9456 78.515 81.3111 78.4844 81.6324C78.4053 82.4634 78.2874 83.566 78.0107 84.3655C77.7335 85.1662 76.5535 82.1872 76.468 81.9604C75.7605 80.084 75.8728 77.3949 75.8728 75.4008C75.8728 73.3763 75.8728 71.3517 75.8728 69.3272C75.8728 68.1005 75.6576 66.8917 75.3869 65.7073C75.2763 65.2234 75.1217 64.7185 74.8767 64.2861C74.0595 62.8439 74.0685 61.1909 73.4798 59.6701C73.2284 59.0208 73.1574 58.3385 73.0789 57.6416C72.9275 56.2973 72.6994 55.0091 72.508 53.6694C72.2937 52.1692 72.3903 50.645 72.2043 49.1385C72.0867 48.1855 71.7184 47.3099 71.7184 46.3446C71.7184 44.1808 71.422 41.812 71.9371 39.7001C72.214 38.5645 72.2041 37.3751 72.3258 36.2138C72.4974 34.5755 73.0173 33.0274 73.2004 31.3792C74.0906 23.3675 75.8273 15.1864 80.7924 8.76101C81.5898 7.72909 83.1462 7.30376 84.388 7.12113C85.6835 6.93062 87.0347 6.57451 88.3359 6.57451" stroke="#7B6823" stroke-width="2" stroke-linecap="round"/>
<path d="M85.712 13.134C87.1991 11.3991 87.5479 8.94729 88.9796 7.15757C90.8652 4.80067 92.8734 3.62338 95.7457 2.85745C96.8855 2.55349 99.5785 1.82682 100.702 2.54162C101.124 2.8102 101.315 3.27516 101.844 3.29475C102.465 3.31777 103.092 3.29475 103.714 3.29475C107.832 3.29475 109.108 7.87245 109.108 11.2633C109.108 14.9089 109.304 18.3213 108.014 21.7829C107.553 23.0217 106.393 24.3797 105.391 25.257C104.655 25.9003 104.351 26.6507 103.763 27.3949C103.352 27.914 102.603 28.1129 103.301 27.6864C104.362 27.0381 104.844 26.1077 106.047 25.6943C108.108 24.9856 109.559 23.4106 111.902 23.4106C113.761 23.4106 115.743 23.2078 117.586 23.4592C119.028 23.6557 118.728 25.4583 118.728 26.5567C118.728 27.9681 118.85 29.4428 118.68 30.8447C118.465 32.6093 117.31 33.7449 116.323 35.1327C115.411 36.415 114.94 37.3182 113.578 38.0966C112.242 38.8601 111.168 39.9965 109.982 40.9512C108.592 42.0699 107.914 43.6568 106.702 44.9477C106.038 45.6552 105.445 46.4873 104.698 47.1099C103.969 47.7179 102.909 48.0522 102.378 48.8712C100.521 51.7368 97.3793 53.8197 95.94 57.0342C95.2205 58.6411 94.2946 60.23 93.7049 61.8809C93.3382 62.9079 93.1715 63.9179 92.4902 64.7355" stroke="#7B6823" stroke-width="2" stroke-linecap="round"/>
<path d="M93.8021 61.8931C93.8021 60.3321 94.6108 59.8318 95.9886 59.1478C98.8436 57.7306 101.922 56.6955 104.48 54.7019C105.995 53.5209 107.085 51.7469 108.427 50.3775C109.434 49.3508 110.477 48.373 111.452 47.3164C111.914 46.816 112.467 46.0014 113.043 45.713" stroke="#7B6823" stroke-width="2" stroke-linecap="round"/>
<path d="M101.674 50.3046C102.803 50.0223 104.069 49.0086 105.075 48.4461C108.941 46.2836 112.397 43.2743 115.521 40.1495C116.854 38.8166 118.946 38.6678 120.696 38.2302C122.551 37.7664 124.398 36.7886 126.333 36.7483C127.311 36.7279 128.566 36.5604 129.454 37.0277C131.661 38.1892 133.266 40.3567 135.467 41.5464C136.531 42.1215 137.252 42.6611 138.188 43.3564C138.96 43.93 139.584 43.9806 140.156 44.8383" stroke="#7B6823" stroke-width="2" stroke-linecap="round"/>
<path d="M112.606 57.9574C111.201 57.6062 114.521 53.8799 114.781 53.6208C117.222 51.1794 120.241 50.1652 123.332 48.8469C126.147 47.6465 128.586 46.3602 131.58 45.7129C134.255 45.1347 137.033 44.8383 139.767 44.8383C141.447 44.8383 143.617 44.464 145.246 44.9598C146.282 45.2751 145.866 47.9007 145.829 48.6647C145.712 51.0513 142.801 52.3989 140.958 53.4386C140.01 53.9733 138.86 54.459 137.751 54.459" stroke="#7B6823" stroke-width="2" stroke-linecap="round"/>
<path d="M142.999 52.2725C144.637 50.8159 144.966 54.9266 144.966 55.6737C144.966 57.1763 144.966 57.6837 143.873 58.7348C142.589 59.9692 141.167 60.6816 139.5 61.2371" stroke="#7B6823" stroke-width="2" stroke-linecap="round"/>
<path d="M81.7764 84.4141C83.6712 83.7319 85.7521 84.1865 87.6921 83.7338C89.9417 83.2089 92.234 82.7502 94.4702 82.1911C96.5675 81.6668 98.8794 81.0503 100.896 80.2719C103.652 79.2082 106.697 79.5411 109.545 78.9478C110.668 78.714 111.798 78.7106 112.934 78.5713C115.976 78.1982 119.022 77.4586 122.008 76.7856C126.49 75.7754 131.374 74.8681 135.224 72.194C137.635 70.5197 140.614 68.2144 141.905 65.4644C142.497 64.2037 142.902 62.9077 143.63 61.7109C143.994 61.1129 144.213 60.6101 144.31 59.9252" stroke="#7B6823" stroke-width="2" stroke-linecap="round"/>
<path d="M117.854 77.4173C117.854 73.7787 122.566 71.7258 125.519 70.7606C127.562 70.0925 129.763 70.1077 131.726 69.1328C134.206 67.9012 136.448 65.9922 138.626 64.2982" stroke="#7B6823" stroke-width="2" stroke-linecap="round"/>
<path d="M107.577 77.1986C107.823 77.8554 109.387 76.3876 109.472 76.3119C111.117 74.8475 112.19 72.9479 113.274 71.0643C114.225 69.4123 115.205 68.1774 116.76 67.1407" stroke="#7B6823" stroke-width="2" stroke-linecap="round"/>
<path d="M115.667 62.549C115.834 61.2164 117.04 59.605 117.805 58.589C121.718 53.391 127.602 51.4056 133.597 49.6487" stroke="#7B6823" stroke-width="2" stroke-linecap="round"/>
<path d="M89.4292 78.0732C94.7996 74.3767 102.535 72.9173 106.642 67.5658C108 65.7962 108.838 63.7238 109.982 61.8931" stroke="#7B6823" stroke-width="2" stroke-linecap="round"/>
<path d="M85.2748 56.6455C87.5357 54.9166 88.7744 50.8236 89.6721 48.2517C90.8862 44.7734 91.9278 41.1584 93.0247 37.635C94.9648 31.4033 96.3285 25.0149 98.3938 18.8189" stroke="#7B6823" stroke-width="2" stroke-linecap="round"/>
<path d="M77.8407 61.6744C76.5519 60.6243 76.768 57.2378 76.6746 55.8195C76.4787 52.8446 76.297 49.6597 76.6381 46.6847C77.0014 43.5163 77.9721 40.4558 78.9704 37.4407C79.4904 35.8702 79.9084 34.6827 80.9018 33.4685" stroke="#7B6823" stroke-width="2" stroke-linecap="round"/>
<path d="M97.5192 44.8383C99.6903 41.1475 102.997 38.1989 105.075 34.4403C106.366 32.1049 106.866 29.4941 107.358 26.909" stroke="#7B6823" stroke-width="2" stroke-linecap="round"/>
<path d="M99.2684 26.0344C99.0791 25.0877 99.1713 24.1663 99.317 23.2162C99.5838 21.476 99.6156 19.792 99.7543 18.0415C99.9927 15.0311 100.567 11.6477 101.455 8.761" stroke="#7B6823" stroke-width="2" stroke-linecap="round"/>
<path d="M66.4709 63.4236C66.7774 59.1316 66.66 54.4215 65.2075 50.3168C64.1766 47.4033 62.7102 44.5957 61.4419 41.7772" stroke="#7B6823" stroke-width="2" stroke-linecap="round"/>
<path d="M63.847 71.0764C63.1991 64.9862 61.2422 59.5333 59.4011 53.7544C58.7573 51.7336 57.7341 49.8951 57.0688 47.8994" stroke="#7B6823" stroke-width="2" stroke-linecap="round"/>
<path d="M52.2585 57.0828C50.4375 51.0338 48.2593 44.9219 47.5697 38.6068C47.1835 35.0701 46.6919 31.54 46.355 28.0023" stroke="#7B6823" stroke-width="2" stroke-linecap="round"/>
<path d="M51.3839 13.5713C51.3839 22.7814 51.2773 31.9348 54.7365 40.6354C55.6322 42.888 56.2433 44.2101 58.5994 44.8383" stroke="#7B6823" stroke-width="2" stroke-linecap="round"/>
<path d="M54.8823 10.5102C60.7707 15.4593 67.399 21.0157 69.7506 28.6582" stroke="#7B6823" stroke-width="2" stroke-linecap="round"/>
<path d="M45.2617 53.1471C45.2617 47.6313 45.6829 41.8881 44.8973 36.4081C44.4157 33.0488 43.6346 29.8565 43.5368 26.4353C43.443 23.1494 43.2134 19.5925 44.0106 16.3773C44.597 14.0121 45.8707 12.0494 47.2296 10.0729" stroke="#7B6823" stroke-width="2" stroke-linecap="round"/>
<path d="M37.1717 12.4781C37.1717 16.7054 36.7086 24.2466 42.4194 24.7225" stroke="#7B6823" stroke-width="2" stroke-linecap="round"/>
<path d="M46.5736 7.4491C45.7038 7.4491 45.0087 7.45624 44.217 7.06039C40.5927 5.24824 36.2375 9.66131 34.5721 12.3444C33.3349 14.3377 33.8919 17.4167 33.8919 19.6449C33.8919 21.9934 33.8919 24.3419 33.8919 26.6903C33.8919 31.2954 35.7711 35.752 37.8276 39.8094C38.7936 41.7152 40.147 43.5086 41.2167 45.3728C42.3172 47.2909 43.3806 49.2589 44.5572 51.1306C45.6781 52.9139 47.011 54.6032 48.0556 56.4268C49.0536 58.1691 49.7574 60.0275 50.8373 61.7473C51.8965 63.4342 53.4489 64.9125 54.7608 66.4119C56.142 67.9903 57.3446 69.7195 59.1703 70.8335C61.9015 72.4999 65.8699 72.789 68.22 75.0121C70.2606 76.9425 71.6775 79.6757 72.8117 82.2276" stroke="#7B6823" stroke-width="2" stroke-linecap="round"/>
<path d="M46.1364 7.01181C47.0864 9.65088 48.6109 10.4317 51.3597 10.5102C53.1056 10.5601 54.8607 10.5102 56.6073 10.5102C60.4681 10.5102 64.0935 8.76627 67.552 11.4334C71.3826 14.3875 73.0304 18.8444 73.0304 23.5199C73.0304 25.4354 73.134 27.3835 72.1558 29.0955" stroke="#7B6823" stroke-width="2" stroke-linecap="round"/>
<path d="M60.5673 9.85425C60.9321 5.2935 63.8377 1.10122 68.7667 1.59412C73.198 2.03726 75.4735 5.36284 77.3183 9.05254C77.8159 10.0478 78.0593 10.7289 78.0593 11.8221" stroke="#7B6823" stroke-width="2" stroke-linecap="round"/>
<path d="M49.6348 64.0796C49.156 63.6486 49.0612 62.5761 48.8817 62.0146C48.2449 60.0233 47.3516 58.1284 46.3793 56.281C45.2632 54.1605 43.6378 51.9622 41.9577 50.2439C41.1107 49.3776 39.9334 48.8176 38.9331 48.1545C37.0426 46.9013 35.1667 45.5259 33.1388 44.4982C31.0311 43.4301 28.2457 42.5379 25.8991 42.2631C20.4088 41.6201 13.0077 40.5892 8.2734 44.1702C4.37799 47.1168 2.45666 51.1372 2.06616 55.9652C1.90987 57.8975 1.70571 60.2219 2.27266 62.1117C2.77495 63.786 3.82793 64.6973 5.03008 65.8288" stroke="#7B6823" stroke-width="2" stroke-linecap="round"/>
<path d="M16.6186 41.9959C15.3678 44.6537 12.5192 46.341 10.9337 48.774C8.74549 52.1318 5.30103 53.9553 4.34985 58.1517C3.41428 62.2792 4.38575 66.6974 5.4674 70.6634C6.27355 73.6193 8.02923 76.2885 9.99832 78.6077C12.1475 81.139 15.5143 83.0349 18.7929 83.333C28.4497 84.2109 38.1739 84.7337 47.7884 86.0175C50.1588 86.334 52.6175 86.5825 54.9553 87.1351C55.9279 87.365 56.7853 87.5978 57.7978 87.6574C60.3922 87.81 63.0223 87.6938 65.6206 87.6938C68.0275 87.6938 70.5974 87.9502 72.9454 87.3051C75.0643 86.723 77.074 85.7487 78.934 84.6327" stroke="#7B6823" stroke-width="2" stroke-linecap="round"/>
<path d="M57.0689 87.4752C52.7695 87.866 47.5902 88.4946 43.7191 90.5727C41.6251 91.6969 39.7648 93.2399 37.767 94.5206C35.3142 96.0928 32.7512 97.4741 30.4907 99.3309C27.7517 101.581 25.4053 103.883 23.9798 107.142C23.0037 109.373 23.1781 111.615 23.1781 113.993C23.1781 117.689 23.1375 121.426 23.9312 125.059C24.5788 128.023 26.0936 130.654 26.9923 133.513C27.6427 135.583 29.3498 137.477 30.7823 139.101C31.6861 140.125 33.1294 139.951 34.3657 139.951C36.1838 139.951 38.0018 139.951 39.8198 139.951C42.9608 139.951 46.336 140.3 49.4405 139.708C51.3445 139.345 53.1914 138.547 54.931 137.716C56.309 137.058 57.5589 136.031 58.9761 135.481C62.2138 134.226 65.9058 132.672 68.6331 130.513C75.0806 125.409 75.6083 116.584 77.2091 109.134C78.9019 101.256 82.8697 93.921 82.8697 85.726" stroke="#7B6823" stroke-width="2" stroke-linecap="round"/>
<path d="M81.3391 86.1633C81.5698 92.7183 82.2896 99.0249 83.477 105.453C84.2665 109.727 85.3759 114.407 87.2913 118.329C88.6826 121.178 92.1667 121.036 94.9683 121.439C98.9676 122.014 103.283 121.585 107.31 121.585C109.097 121.585 110.943 121.704 112.715 121.415C115.038 121.036 117.198 120.103 119.384 119.277C122.917 117.941 125.809 115.958 128.568 113.422C129.947 112.153 131.125 111.17 131.92 109.413C132.686 107.722 133.273 105.866 133.499 104.02C133.84 101.242 133.785 98.223 133.815 95.4195C133.827 94.3557 133.443 92.5696 134.471 91.8968C135.979 90.9096 137.276 89.3711 137.314 87.4752C137.365 84.8687 131.342 85.7155 129.782 85.726C125.782 85.753 122.373 86.809 118.51 87.5481C114.657 88.2851 110.799 88.3498 106.897 88.3498C101.86 88.3498 96.8228 88.3498 91.7857 88.3498C89.6793 88.3498 87.4796 88.4885 85.6149 87.3294C84.1358 86.41 82.8687 84.9602 81.3391 84.1954" stroke="#7B6823" stroke-width="2" stroke-linecap="round"/>
<path d="M74.0599 85.2462C72.1006 85.9586 70.0436 85.0069 68.2424 84.2722C63.8375 82.4755 59.2563 81.1609 54.9097 79.205C51.0713 77.4777 47.3869 75.4124 43.5513 73.6903C32.0456 68.5245 20.1292 64.4269 8.19922 60.3708" stroke="#7B6823" stroke-width="2" stroke-linecap="round"/>
<path d="M37.339 81.6925C36.7909 84.0677 20.3573 78.2831 17.4913 77.4545C14.4646 76.5795 11.7654 75.4552 8.90991 74.1115" stroke="#7B6823" stroke-width="2" stroke-linecap="round"/>
<path d="M48.4737 71.0317C45.045 69.6091 41.597 68.3326 38.0497 67.2411" stroke="#7B6823" stroke-width="2" stroke-linecap="round"/>
<path d="M19.3339 51.3682C25.4848 54.0819 31.7413 56.4594 38.0497 58.7124" stroke="#7B6823" stroke-width="2" stroke-linecap="round"/>
<path d="M34.9698 114.149C35.4264 106.388 40.624 100.511 46.789 96.223C50.7207 93.4883 55.6377 92.3459 60.0822 90.6951" stroke="#7B6823" stroke-width="2" stroke-linecap="round"/>
<path d="M61.2667 90.4582L61.9775 89.9844" stroke="#7B6823" stroke-width="2" stroke-linecap="round"/>
<path d="M35.9175 129.548C42.326 118.489 47.7302 106.725 57.1866 97.9076C60.3585 94.9501 63.3978 92.039 66.0049 88.5629" stroke="#7B6823" stroke-width="2" stroke-linecap="round"/>
<path d="M55.344 105.147C59.3179 101.27 65.0748 99.4863 69.2426 95.7491C71.8572 93.4047 73.0857 90.3341 74.2967 87.1414" stroke="#7B6823" stroke-width="2" stroke-linecap="round"/>
<path d="M52.738 122.204C54.7331 118.57 57.2954 115.175 59.7927 111.885C63.1613 107.448 67.4899 103.317 70.2166 98.4209C72.0507 95.128 73.2318 91.5469 73.8229 87.8522" stroke="#7B6823" stroke-width="2" stroke-linecap="round"/>
<path d="M53.9226 130.733C61.1183 126.318 67.745 121.748 68.1371 112.728" stroke="#7B6823" stroke-width="2" stroke-linecap="round"/>
<path d="M73.3491 126.231C73.385 122.653 73.2906 119.666 73.7966 116.123C75.0608 107.274 74.1891 116.282 75.9551 107.989" stroke="#7B6823" stroke-width="2" stroke-linecap="round"/>
<path d="M74.2968 98.5131C74.5789 96.5027 75.5395 94.6602 76.2447 92.7746C77.3221 89.8936 78.0424 87.026 78.798 84.0616" stroke="#7B6823" stroke-width="2" stroke-linecap="round"/>
<path d="M82.3517 91.4058C83.7122 95.0623 85.4362 99.0232 87.8006 102.146C88.5668 103.158 89.4334 104.09 90.6435 104.436" stroke="#7B6823" stroke-width="2" stroke-linecap="round"/>
<path d="M86.1422 89.5105C87.9167 92.1394 89.6221 94.5964 92.4335 96.1835C93.1108 96.5658 93.7898 96.899 94.434 97.3285" stroke="#7B6823" stroke-width="2" stroke-linecap="round"/>
<path d="M92.0649 90.6951C96.4115 92.44 100.614 94.4167 104.884 96.3282C107.162 97.3477 109.794 97.683 111.978 98.8553C114.636 100.281 116.103 102.852 117.888 105.147" stroke="#7B6823" stroke-width="2" stroke-linecap="round"/>
<path d="M111.728 107.516C114.389 108.703 118.587 109.5 119.783 112.491" stroke="#7B6823" stroke-width="2" stroke-linecap="round"/>
<path d="M119.783 112.491C118.083 114.409 116.613 116.033 114.111 116.887C111.875 117.649 109.453 117.666 107.122 117.703C102.707 117.773 98.1118 117.993 93.776 117.045C89.3318 116.072 84.4839 113.625 84.4839 108.463" stroke="#7B6823" stroke-width="2" stroke-linecap="round"/>
<path d="M106.042 111.306C108.12 112.747 110.247 114.081 112.439 115.334" stroke="#7B6823" stroke-width="2" stroke-linecap="round"/>
<path d="M123.337 107.753C123.702 104.57 124.423 101.424 124.995 98.2762" stroke="#7B6823" stroke-width="2" stroke-linecap="round"/>
<path d="M125.232 118.176C127.281 113.834 129.246 109.438 131.392 105.147" stroke="#7B6823" stroke-width="2" stroke-linecap="round"/>
<path d="M106.753 89.7474C112.409 89.7897 118.343 90.6907 123.982 90.116C127.105 89.7977 129.298 88.4451 131.866 86.9045" stroke="#7B6823" stroke-width="2" stroke-linecap="round"/>
<path d="M127.127 98.2762L132.103 87.6153" stroke="#7B6823" stroke-width="2" stroke-linecap="round"/>
<path d="M35.9175 130.259C33.5965 131.475 32.0648 134.057 31.1793 136.418" stroke="#7B6823" stroke-width="2" stroke-linecap="round"/>
<path d="M38.0497 136.892C43.924 136.741 49.7454 136.131 55.5809 135.471" stroke="#7B6823" stroke-width="2" stroke-linecap="round"/>
</svg>
