<svg width="201" height="233" viewBox="0 0 201 233" fill="none" xmlns="http://www.w3.org/2000/svg">
<path d="M22 3H194C196.209 3 198 4.79086 198 7V212C198 214.209 196.209 216 194 216H22C19.7909 216 18 214.209 18 212V7C18 4.79086 19.7909 3 22 3Z" stroke="#7B6823" stroke-width="6"/>
<path d="M7 17H179C181.209 17 183 18.7909 183 21V226C183 228.209 181.209 230 179 230H7C4.79086 230 3 228.209 3 226V21C3 18.7909 4.79086 17 7 17Z" stroke="#7B6823" stroke-width="6"/>
<path d="M0 21C0 17.134 3.13401 14 7 14H144.495C146.414 14 148.248 14.7876 149.57 16.1788L166.5 34L184.13 52.9857C185.332 54.2804 186 55.982 186 57.7488V88C186 91.866 182.866 95 179 95H7C3.13401 95 0 91.866 0 88V21Z" fill="#7B6823"/>
<path d="M0 21C0 17.134 3.13401 14 7 14H144.495C146.414 14 148.248 14.7876 149.57 16.1788L166.5 34L184.13 52.9857C185.332 54.2804 186 55.982 186 57.7488V88C186 91.866 182.866 95 179 95H7C3.13401 95 0 91.866 0 88V21Z" stroke="#7B6823"/>
<rect x="61.2129" y="126.238" width="6" height="43.3971" rx="3" transform="rotate(38.8341 61.2129 126.238)" fill="#7B6823"/>
<rect x="66.4458" y="189.384" width="6" height="43.3971" rx="3" transform="rotate(141.542 66.4458 189.384)" fill="#7B6823"/>
<rect x="124.9" y="192.982" width="6" height="43.3971" rx="3" transform="rotate(-140.292 124.9 192.982)" fill="#7B6823"/>
<rect x="120.631" y="129.763" width="6" height="43.3971" rx="3" transform="rotate(-37.5841 120.631 129.763)" fill="#7B6823"/>
<rect x="99.0017" y="123.785" width="6" height="70.7536" rx="3" transform="rotate(14.1844 99.0017 123.785)" fill="#7B6823"/>
<path d="M28.1392 77V42.8182H32.2784V58.0398H50.5043V42.8182H54.6435V77H50.5043V61.7116H32.2784V77H28.1392ZM61.0609 46.4901V42.8182H86.6973V46.4901H75.9487V77H71.8095V46.4901H61.0609ZM93.0855 42.8182H98.0258L109.642 71.1918H110.043L121.659 42.8182H126.6V77H122.728V51.0298H122.394L111.712 77H107.973L97.2915 51.0298H96.9577V77H93.0855V42.8182Z" fill="white"/>
</svg>
